%TF.GenerationSoftware,KiCad,Pcbnew,(6.0.11-0)*%
%TF.CreationDate,2023-04-07T11:55:59-07:00*%
%TF.ProjectId,SADA_Board,53414441-5f42-46f6-9172-642e6b696361,rev?*%
%TF.SameCoordinates,Original*%
%TF.FileFunction,Drillmap*%
%TF.FilePolarity,Positive*%
%FSLAX45Y45*%
G04 Gerber Fmt 4.5, Leading zero omitted, Abs format (unit mm)*
G04 Created by KiCad (PCBNEW (6.0.11-0)) date 2023-04-07 11:55:59*
%MOMM*%
%LPD*%
G01*
G04 APERTURE LIST*
%ADD10C,0.100000*%
%ADD11C,0.200000*%
%ADD12C,0.040000*%
%ADD13C,0.070000*%
%ADD14C,0.080000*%
%ADD15C,0.110000*%
%ADD16C,0.250000*%
G04 APERTURE END LIST*
D10*
X10478509Y-12217000D02*
X10478509Y-6916714D01*
X10578514Y-6816709D02*
G75*
G03*
X10478509Y-6916714I-4J-100001D01*
G01*
X18778091Y-6916714D02*
X18778091Y-12217000D01*
X18678086Y-12317001D02*
G75*
G03*
X18778091Y-12217000I4J100001D01*
G01*
X10478505Y-12217000D02*
G75*
G03*
X10578514Y-12317005I100005J0D01*
G01*
X18778091Y-6916714D02*
G75*
G03*
X18678086Y-6816709I-100001J4D01*
G01*
X18678086Y-12317005D02*
X10578514Y-12317005D01*
X10578514Y-6816709D02*
X18678086Y-6816709D01*
D11*
D12*
X10547300Y-10956800D02*
X10587300Y-10996800D01*
X10587300Y-10956800D02*
X10547300Y-10996800D01*
X10560000Y-10207500D02*
X10600000Y-10247500D01*
X10600000Y-10207500D02*
X10560000Y-10247500D01*
X10560000Y-10525000D02*
X10600000Y-10565000D01*
X10600000Y-10525000D02*
X10560000Y-10565000D01*
X10636200Y-11160000D02*
X10676200Y-11200000D01*
X10676200Y-11160000D02*
X10636200Y-11200000D01*
X10674300Y-10131300D02*
X10714300Y-10171300D01*
X10714300Y-10131300D02*
X10674300Y-10171300D01*
X10801300Y-10207500D02*
X10841300Y-10247500D01*
X10841300Y-10207500D02*
X10801300Y-10247500D01*
X10839400Y-11160000D02*
X10879400Y-11200000D01*
X10879400Y-11160000D02*
X10839400Y-11200000D01*
X10928300Y-10131300D02*
X10968300Y-10171300D01*
X10968300Y-10131300D02*
X10928300Y-10171300D01*
X10996880Y-11287000D02*
X11036880Y-11327000D01*
X11036880Y-11287000D02*
X10996880Y-11327000D01*
X11055300Y-10207500D02*
X11095300Y-10247500D01*
X11095300Y-10207500D02*
X11055300Y-10247500D01*
X11068000Y-9140700D02*
X11108000Y-9180700D01*
X11108000Y-9140700D02*
X11068000Y-9180700D01*
X11156900Y-11160000D02*
X11196900Y-11200000D01*
X11196900Y-11160000D02*
X11156900Y-11200000D01*
X11195000Y-10131300D02*
X11235000Y-10171300D01*
X11235000Y-10131300D02*
X11195000Y-10171300D01*
X11332160Y-11287000D02*
X11372160Y-11327000D01*
X11372160Y-11287000D02*
X11332160Y-11327000D01*
X11487100Y-11160000D02*
X11527100Y-11200000D01*
X11527100Y-11160000D02*
X11487100Y-11200000D01*
X11550600Y-7832600D02*
X11590600Y-7872600D01*
X11590600Y-7832600D02*
X11550600Y-7872600D01*
X11563300Y-8086600D02*
X11603300Y-8126600D01*
X11603300Y-8086600D02*
X11563300Y-8126600D01*
X11576000Y-8861300D02*
X11616000Y-8901300D01*
X11616000Y-8861300D02*
X11576000Y-8901300D01*
X11576000Y-9001000D02*
X11616000Y-9041000D01*
X11616000Y-9001000D02*
X11576000Y-9041000D01*
X11576000Y-9610600D02*
X11616000Y-9650600D01*
X11616000Y-9610600D02*
X11576000Y-9650600D01*
X11576000Y-9750300D02*
X11616000Y-9790300D01*
X11616000Y-9750300D02*
X11576000Y-9790300D01*
X11677600Y-7832600D02*
X11717600Y-7872600D01*
X11717600Y-7832600D02*
X11677600Y-7872600D01*
X11690300Y-9356600D02*
X11730300Y-9396600D01*
X11730300Y-9356600D02*
X11690300Y-9396600D01*
X11692840Y-9117840D02*
X11732840Y-9157840D01*
X11732840Y-9117840D02*
X11692840Y-9157840D01*
X11715700Y-11287000D02*
X11755700Y-11327000D01*
X11755700Y-11287000D02*
X11715700Y-11327000D01*
X11779200Y-9356600D02*
X11819200Y-9396600D01*
X11819200Y-9356600D02*
X11779200Y-9396600D01*
X11779200Y-10398000D02*
X11819200Y-10438000D01*
X11819200Y-10398000D02*
X11779200Y-10438000D01*
X11789360Y-9115300D02*
X11829360Y-9155300D01*
X11829360Y-9115300D02*
X11789360Y-9155300D01*
X11794440Y-11530840D02*
X11834440Y-11570840D01*
X11834440Y-11530840D02*
X11794440Y-11570840D01*
X11804600Y-8518400D02*
X11844600Y-8558400D01*
X11844600Y-8518400D02*
X11804600Y-8558400D01*
X11804600Y-8658100D02*
X11844600Y-8698100D01*
X11844600Y-8658100D02*
X11804600Y-8698100D01*
X11817300Y-7832600D02*
X11857300Y-7872600D01*
X11857300Y-7832600D02*
X11817300Y-7872600D01*
X11817300Y-11099040D02*
X11857300Y-11139040D01*
X11857300Y-11099040D02*
X11817300Y-11139040D01*
X11855400Y-10118600D02*
X11895400Y-10158600D01*
X11895400Y-10118600D02*
X11855400Y-10158600D01*
X11857940Y-8835900D02*
X11897940Y-8875900D01*
X11897940Y-8835900D02*
X11857940Y-8875900D01*
X11857940Y-8942580D02*
X11897940Y-8982580D01*
X11897940Y-8942580D02*
X11857940Y-8982580D01*
X11857940Y-9041640D02*
X11897940Y-9081640D01*
X11897940Y-9041640D02*
X11857940Y-9081640D01*
X11860480Y-10497060D02*
X11900480Y-10537060D01*
X11900480Y-10497060D02*
X11860480Y-10537060D01*
X11863020Y-10296400D02*
X11903020Y-10336400D01*
X11903020Y-10296400D02*
X11863020Y-10336400D01*
X11957000Y-7832600D02*
X11997000Y-7872600D01*
X11997000Y-7832600D02*
X11957000Y-7872600D01*
X11990800Y-11296000D02*
X12030800Y-11336000D01*
X12030800Y-11296000D02*
X11990800Y-11336000D01*
X12028120Y-9117840D02*
X12068120Y-9157840D01*
X12068120Y-9117840D02*
X12028120Y-9157840D01*
X12058600Y-10613900D02*
X12098600Y-10653900D01*
X12098600Y-10613900D02*
X12058600Y-10653900D01*
X12061200Y-10467250D02*
X12101200Y-10507250D01*
X12101200Y-10467250D02*
X12061200Y-10507250D01*
X12096700Y-7832600D02*
X12136700Y-7872600D01*
X12136700Y-7832600D02*
X12096700Y-7872600D01*
X12134200Y-10379000D02*
X12174200Y-10419000D01*
X12174200Y-10379000D02*
X12134200Y-10419000D01*
X12183060Y-9450580D02*
X12223060Y-9490580D01*
X12223060Y-9450580D02*
X12183060Y-9490580D01*
X12183060Y-9534400D02*
X12223060Y-9574400D01*
X12223060Y-9534400D02*
X12183060Y-9574400D01*
X12197200Y-10033000D02*
X12237200Y-10073000D01*
X12237200Y-10033000D02*
X12197200Y-10073000D01*
X12211000Y-8086600D02*
X12251000Y-8126600D01*
X12251000Y-8086600D02*
X12211000Y-8126600D01*
X12299900Y-9280400D02*
X12339900Y-9320400D01*
X12339900Y-9280400D02*
X12299900Y-9320400D01*
X12312600Y-10118600D02*
X12352600Y-10158600D01*
X12352600Y-10118600D02*
X12312600Y-10158600D01*
X12350700Y-8988300D02*
X12390700Y-9028300D01*
X12390700Y-8988300D02*
X12350700Y-9028300D01*
X12350700Y-9064500D02*
X12390700Y-9104500D01*
X12390700Y-9064500D02*
X12350700Y-9104500D01*
X12383720Y-9478520D02*
X12423720Y-9518520D01*
X12423720Y-9478520D02*
X12383720Y-9518520D01*
X12401500Y-10347200D02*
X12441500Y-10387200D01*
X12441500Y-10347200D02*
X12401500Y-10387200D01*
X12401500Y-10423400D02*
X12441500Y-10463400D01*
X12441500Y-10423400D02*
X12401500Y-10463400D01*
X12426900Y-8988300D02*
X12466900Y-9028300D01*
X12466900Y-8988300D02*
X12426900Y-9028300D01*
X12426900Y-9064500D02*
X12466900Y-9104500D01*
X12466900Y-9064500D02*
X12426900Y-9104500D01*
X12447220Y-8505700D02*
X12487220Y-8545700D01*
X12487220Y-8505700D02*
X12447220Y-8545700D01*
X12490400Y-7832600D02*
X12530400Y-7872600D01*
X12530400Y-7832600D02*
X12490400Y-7872600D01*
X12528500Y-8658100D02*
X12568500Y-8698100D01*
X12568500Y-8658100D02*
X12528500Y-8698100D01*
X12566600Y-7591000D02*
X12606600Y-7631000D01*
X12606600Y-7591000D02*
X12566600Y-7631000D01*
X12630100Y-8747000D02*
X12670100Y-8787000D01*
X12670100Y-8747000D02*
X12630100Y-8787000D01*
X12632640Y-8503160D02*
X12672640Y-8543160D01*
X12672640Y-8503160D02*
X12632640Y-8543160D01*
X12758800Y-7301000D02*
X12798800Y-7341000D01*
X12798800Y-7301000D02*
X12758800Y-7341000D01*
X12758800Y-7458000D02*
X12798800Y-7498000D01*
X12798800Y-7458000D02*
X12758800Y-7498000D01*
X12792800Y-7375400D02*
X12832800Y-7415400D01*
X12832800Y-7375400D02*
X12792800Y-7415400D01*
X12820600Y-10499600D02*
X12860600Y-10539600D01*
X12860600Y-10499600D02*
X12820600Y-10539600D01*
X12820600Y-10588500D02*
X12860600Y-10628500D01*
X12860600Y-10588500D02*
X12820600Y-10628500D01*
X12820600Y-10690100D02*
X12860600Y-10730100D01*
X12860600Y-10690100D02*
X12820600Y-10730100D01*
X12820600Y-10906000D02*
X12860600Y-10946000D01*
X12860600Y-10906000D02*
X12820600Y-10946000D01*
X12820600Y-10982200D02*
X12860600Y-11022200D01*
X12860600Y-10982200D02*
X12820600Y-11022200D01*
X12820600Y-11083800D02*
X12860600Y-11123800D01*
X12860600Y-11083800D02*
X12820600Y-11123800D01*
X12828800Y-7302000D02*
X12868800Y-7342000D01*
X12868800Y-7302000D02*
X12828800Y-7342000D01*
X12833800Y-7458000D02*
X12873800Y-7498000D01*
X12873800Y-7458000D02*
X12833800Y-7498000D01*
X12846000Y-10067800D02*
X12886000Y-10107800D01*
X12886000Y-10067800D02*
X12846000Y-10107800D01*
X12846000Y-10144000D02*
X12886000Y-10184000D01*
X12886000Y-10144000D02*
X12846000Y-10184000D01*
X12896800Y-6969000D02*
X12936800Y-7009000D01*
X12936800Y-6969000D02*
X12896800Y-7009000D01*
X12909500Y-10105900D02*
X12949500Y-10145900D01*
X12949500Y-10105900D02*
X12909500Y-10145900D01*
X12947600Y-6867400D02*
X12987600Y-6907400D01*
X12987600Y-6867400D02*
X12947600Y-6907400D01*
X12949710Y-9015810D02*
X12989710Y-9055810D01*
X12989710Y-9015810D02*
X12949710Y-9055810D01*
X12998400Y-6969000D02*
X13038400Y-7009000D01*
X13038400Y-6969000D02*
X12998400Y-7009000D01*
X12998400Y-7629400D02*
X13038400Y-7669400D01*
X13038400Y-7629400D02*
X12998400Y-7669400D01*
X13008560Y-8465060D02*
X13048560Y-8505060D01*
X13048560Y-8465060D02*
X13008560Y-8505060D01*
X13023800Y-8683500D02*
X13063800Y-8723500D01*
X13063800Y-8683500D02*
X13023800Y-8723500D01*
X13023800Y-8899400D02*
X13063800Y-8939400D01*
X13063800Y-8899400D02*
X13023800Y-8939400D01*
X13023800Y-9115300D02*
X13063800Y-9155300D01*
X13063800Y-9115300D02*
X13023800Y-9155300D01*
X13023800Y-9343900D02*
X13063800Y-9383900D01*
X13063800Y-9343900D02*
X13023800Y-9383900D01*
X13023800Y-9559800D02*
X13063800Y-9599800D01*
X13063800Y-9559800D02*
X13023800Y-9599800D01*
X13049200Y-8061200D02*
X13089200Y-8101200D01*
X13089200Y-8061200D02*
X13049200Y-8101200D01*
X13087300Y-8785100D02*
X13127300Y-8825100D01*
X13127300Y-8785100D02*
X13087300Y-8825100D01*
X13094920Y-9188960D02*
X13134920Y-9228960D01*
X13134920Y-9188960D02*
X13094920Y-9228960D01*
X13100000Y-7527800D02*
X13140000Y-7567800D01*
X13140000Y-7527800D02*
X13100000Y-7567800D01*
X13125400Y-8480300D02*
X13165400Y-8520300D01*
X13165400Y-8480300D02*
X13125400Y-8520300D01*
X13150800Y-7654800D02*
X13190800Y-7694800D01*
X13190800Y-7654800D02*
X13150800Y-7694800D01*
X13154200Y-12074310D02*
X13194200Y-12114310D01*
X13194200Y-12074310D02*
X13154200Y-12114310D01*
X13176200Y-7832600D02*
X13216200Y-7872600D01*
X13216200Y-7832600D02*
X13176200Y-7872600D01*
X13328600Y-7832600D02*
X13368600Y-7872600D01*
X13368600Y-7832600D02*
X13328600Y-7872600D01*
X13384200Y-11611000D02*
X13424200Y-11651000D01*
X13424200Y-11611000D02*
X13384200Y-11651000D01*
X13404800Y-7134100D02*
X13444800Y-7174100D01*
X13444800Y-7134100D02*
X13404800Y-7174100D01*
X13404800Y-7223000D02*
X13444800Y-7263000D01*
X13444800Y-7223000D02*
X13404800Y-7263000D01*
X13404800Y-7324600D02*
X13444800Y-7364600D01*
X13444800Y-7324600D02*
X13404800Y-7364600D01*
X13430200Y-8696200D02*
X13470200Y-8736200D01*
X13470200Y-8696200D02*
X13430200Y-8736200D01*
X13445200Y-9949000D02*
X13485200Y-9989000D01*
X13485200Y-9949000D02*
X13445200Y-9989000D01*
X13476800Y-7426200D02*
X13516800Y-7466200D01*
X13516800Y-7426200D02*
X13476800Y-7466200D01*
X13476800Y-7523000D02*
X13516800Y-7563000D01*
X13516800Y-7523000D02*
X13476800Y-7563000D01*
X13481000Y-6867400D02*
X13521000Y-6907400D01*
X13521000Y-6867400D02*
X13481000Y-6907400D01*
X13493700Y-8162800D02*
X13533700Y-8202800D01*
X13533700Y-8162800D02*
X13493700Y-8202800D01*
X13557200Y-7680200D02*
X13597200Y-7720200D01*
X13597200Y-7680200D02*
X13557200Y-7720200D01*
X13564200Y-11571000D02*
X13604200Y-11611000D01*
X13604200Y-11571000D02*
X13564200Y-11611000D01*
X13608000Y-8505700D02*
X13648000Y-8545700D01*
X13648000Y-8505700D02*
X13608000Y-8545700D01*
X13661800Y-7437000D02*
X13701800Y-7477000D01*
X13701800Y-7437000D02*
X13661800Y-7477000D01*
X13733800Y-7727000D02*
X13773800Y-7767000D01*
X13773800Y-7727000D02*
X13733800Y-7767000D01*
X13735000Y-7057900D02*
X13775000Y-7097900D01*
X13775000Y-7057900D02*
X13735000Y-7097900D01*
X13735800Y-7637000D02*
X13775800Y-7677000D01*
X13775800Y-7637000D02*
X13735800Y-7677000D01*
X13764200Y-11381000D02*
X13804200Y-11421000D01*
X13804200Y-11381000D02*
X13764200Y-11421000D01*
X13798500Y-7337300D02*
X13838500Y-7377300D01*
X13838500Y-7337300D02*
X13798500Y-7377300D01*
X13884200Y-11621000D02*
X13924200Y-11661000D01*
X13924200Y-11621000D02*
X13884200Y-11661000D01*
X13887400Y-7337300D02*
X13927400Y-7377300D01*
X13927400Y-7337300D02*
X13887400Y-7377300D01*
X13945820Y-10390380D02*
X13985820Y-10430380D01*
X13985820Y-10390380D02*
X13945820Y-10430380D01*
X13963600Y-8035800D02*
X14003600Y-8075800D01*
X14003600Y-8035800D02*
X13963600Y-8075800D01*
X14001700Y-7794500D02*
X14041700Y-7834500D01*
X14041700Y-7794500D02*
X14001700Y-7834500D01*
X14012800Y-8673000D02*
X14052800Y-8713000D01*
X14052800Y-8673000D02*
X14012800Y-8713000D01*
X14014200Y-10641000D02*
X14054200Y-10681000D01*
X14054200Y-10641000D02*
X14014200Y-10681000D01*
X14014400Y-8576000D02*
X14054400Y-8616000D01*
X14054400Y-8576000D02*
X14014400Y-8616000D01*
X14052500Y-7515100D02*
X14092500Y-7555100D01*
X14092500Y-7515100D02*
X14052500Y-7555100D01*
X14141400Y-7515100D02*
X14181400Y-7555100D01*
X14181400Y-7515100D02*
X14141400Y-7555100D01*
X14192720Y-10791180D02*
X14232720Y-10831180D01*
X14232720Y-10791180D02*
X14192720Y-10831180D01*
X14282184Y-11777135D02*
X14322184Y-11817135D01*
X14322184Y-11777135D02*
X14282184Y-11817135D01*
X14284120Y-10792180D02*
X14324120Y-10832180D01*
X14324120Y-10792180D02*
X14284120Y-10832180D01*
X14380701Y-11760270D02*
X14420701Y-11800270D01*
X14420701Y-11760270D02*
X14380701Y-11800270D01*
X14395400Y-8772400D02*
X14435400Y-8812400D01*
X14435400Y-8772400D02*
X14395400Y-8812400D01*
X14428420Y-10301480D02*
X14468420Y-10341480D01*
X14468420Y-10301480D02*
X14428420Y-10341480D01*
X14433500Y-8404100D02*
X14473500Y-8444100D01*
X14473500Y-8404100D02*
X14433500Y-8444100D01*
X14481193Y-11720106D02*
X14521193Y-11760106D01*
X14521193Y-11720106D02*
X14481193Y-11760106D01*
X14599800Y-7661000D02*
X14639800Y-7701000D01*
X14639800Y-7661000D02*
X14599800Y-7701000D01*
X14599800Y-7751000D02*
X14639800Y-7791000D01*
X14639800Y-7751000D02*
X14599800Y-7791000D01*
X14636700Y-8162800D02*
X14676700Y-8202800D01*
X14676700Y-8162800D02*
X14636700Y-8202800D01*
X14651940Y-10276080D02*
X14691940Y-10316080D01*
X14691940Y-10276080D02*
X14651940Y-10316080D01*
X14679880Y-9608060D02*
X14719880Y-9648060D01*
X14719880Y-9608060D02*
X14679880Y-9648060D01*
X14689080Y-11923540D02*
X14729080Y-11963540D01*
X14729080Y-11923540D02*
X14689080Y-11963540D01*
X14789100Y-9915400D02*
X14829100Y-9955400D01*
X14829100Y-9915400D02*
X14789100Y-9955400D01*
X14865300Y-9801100D02*
X14905300Y-9841100D01*
X14905300Y-9801100D02*
X14865300Y-9841100D01*
X14966900Y-9290560D02*
X15006900Y-9330560D01*
X15006900Y-9290560D02*
X14966900Y-9330560D01*
X14976100Y-11923540D02*
X15016100Y-11963540D01*
X15016100Y-11923540D02*
X14976100Y-11963540D01*
X14979600Y-7883400D02*
X15019600Y-7923400D01*
X15019600Y-7883400D02*
X14979600Y-7923400D01*
X15017700Y-8581900D02*
X15057700Y-8621900D01*
X15057700Y-8581900D02*
X15017700Y-8621900D01*
X15019740Y-9808220D02*
X15059740Y-9848220D01*
X15059740Y-9808220D02*
X15019740Y-9848220D01*
X15020240Y-9484930D02*
X15060240Y-9524930D01*
X15060240Y-9484930D02*
X15020240Y-9524930D01*
X15025320Y-9714740D02*
X15065320Y-9754740D01*
X15065320Y-9714740D02*
X15025320Y-9754740D01*
X15030253Y-9590861D02*
X15070253Y-9630861D01*
X15070253Y-9590861D02*
X15030253Y-9630861D01*
X15084379Y-10203059D02*
X15124379Y-10243059D01*
X15124379Y-10203059D02*
X15084379Y-10243059D01*
X15264200Y-11711000D02*
X15304200Y-11751000D01*
X15304200Y-11711000D02*
X15264200Y-11751000D01*
X15271700Y-8581900D02*
X15311700Y-8621900D01*
X15311700Y-8581900D02*
X15271700Y-8621900D01*
X15288520Y-11926080D02*
X15328520Y-11966080D01*
X15328520Y-11926080D02*
X15288520Y-11966080D01*
X15308100Y-9297340D02*
X15348100Y-9337340D01*
X15348100Y-9297340D02*
X15308100Y-9337340D01*
X15340280Y-9445500D02*
X15380280Y-9485500D01*
X15380280Y-9445500D02*
X15340280Y-9485500D01*
X15393620Y-10494520D02*
X15433620Y-10534520D01*
X15433620Y-10494520D02*
X15393620Y-10534520D01*
X15530780Y-9295640D02*
X15570780Y-9335640D01*
X15570780Y-9295640D02*
X15530780Y-9335640D01*
X15535860Y-7438900D02*
X15575860Y-7478900D01*
X15575860Y-7438900D02*
X15535860Y-7478900D01*
X15584120Y-10075420D02*
X15624120Y-10115420D01*
X15624120Y-10075420D02*
X15584120Y-10115420D01*
X15590780Y-11928620D02*
X15630780Y-11968620D01*
X15630780Y-11928620D02*
X15590780Y-11968620D01*
X15723820Y-10390380D02*
X15763820Y-10430380D01*
X15763820Y-10390380D02*
X15723820Y-10430380D01*
X15744779Y-9542659D02*
X15784779Y-9582659D01*
X15784779Y-9542659D02*
X15744779Y-9582659D01*
X15756840Y-9267700D02*
X15796840Y-9307700D01*
X15796840Y-9267700D02*
X15756840Y-9307700D01*
X15808993Y-9619253D02*
X15848993Y-9659253D01*
X15848993Y-9619253D02*
X15808993Y-9659253D01*
X15885420Y-11926080D02*
X15925420Y-11966080D01*
X15925420Y-11926080D02*
X15885420Y-11966080D01*
X15903736Y-9110221D02*
X15943736Y-9150221D01*
X15943736Y-9110221D02*
X15903736Y-9150221D01*
X15907671Y-9010332D02*
X15947671Y-9050332D01*
X15947671Y-9010332D02*
X15907671Y-9050332D01*
X15912708Y-9309754D02*
X15952708Y-9349754D01*
X15952708Y-9309754D02*
X15912708Y-9349754D01*
X15932350Y-10369241D02*
X15972350Y-10409241D01*
X15972350Y-10369241D02*
X15932350Y-10409241D01*
X15937180Y-8033260D02*
X15977180Y-8073260D01*
X15977180Y-8033260D02*
X15937180Y-8073260D01*
X15937180Y-9641080D02*
X15977180Y-9681080D01*
X15977180Y-9641080D02*
X15937180Y-9681080D01*
X15946334Y-8441805D02*
X15986334Y-8481805D01*
X15986334Y-8441805D02*
X15946334Y-8481805D01*
X15989560Y-11926080D02*
X16029560Y-11966080D01*
X16029560Y-11926080D02*
X15989560Y-11966080D01*
X16003220Y-7545580D02*
X16043220Y-7585580D01*
X16043220Y-7545580D02*
X16003220Y-7585580D01*
X16045865Y-8432650D02*
X16085865Y-8472650D01*
X16085865Y-8432650D02*
X16045865Y-8472650D01*
X16050956Y-10107839D02*
X16090956Y-10147839D01*
X16090956Y-10107839D02*
X16050956Y-10147839D01*
X16094660Y-8109460D02*
X16134660Y-8149460D01*
X16134660Y-8109460D02*
X16094660Y-8149460D01*
X16097200Y-10372600D02*
X16137200Y-10412600D01*
X16137200Y-10372600D02*
X16097200Y-10412600D01*
X16109900Y-7286500D02*
X16149900Y-7326500D01*
X16149900Y-7286500D02*
X16109900Y-7326500D01*
X16124200Y-11471000D02*
X16164200Y-11511000D01*
X16164200Y-11471000D02*
X16124200Y-11511000D01*
X16148000Y-10004300D02*
X16188000Y-10044300D01*
X16188000Y-10004300D02*
X16148000Y-10044300D01*
X16198800Y-7273800D02*
X16238800Y-7313800D01*
X16238800Y-7273800D02*
X16198800Y-7313800D01*
X16206420Y-9763000D02*
X16246420Y-9803000D01*
X16246420Y-9763000D02*
X16206420Y-9803000D01*
X16275000Y-10372600D02*
X16315000Y-10412600D01*
X16315000Y-10372600D02*
X16275000Y-10412600D01*
X16300400Y-7502400D02*
X16340400Y-7542400D01*
X16340400Y-7502400D02*
X16300400Y-7542400D01*
X16300400Y-7731000D02*
X16340400Y-7771000D01*
X16340400Y-7731000D02*
X16300400Y-7771000D01*
X16300400Y-7934200D02*
X16340400Y-7974200D01*
X16340400Y-7934200D02*
X16300400Y-7974200D01*
X16300400Y-8137400D02*
X16340400Y-8177400D01*
X16340400Y-8137400D02*
X16300400Y-8177400D01*
X16300400Y-9991600D02*
X16340400Y-10031600D01*
X16340400Y-9991600D02*
X16300400Y-10031600D01*
X16313100Y-7299200D02*
X16353100Y-7339200D01*
X16353100Y-7299200D02*
X16313100Y-7339200D01*
X16371520Y-8035800D02*
X16411520Y-8075800D01*
X16411520Y-8035800D02*
X16371520Y-8075800D01*
X16452800Y-10217660D02*
X16492800Y-10257660D01*
X16492800Y-10217660D02*
X16452800Y-10257660D01*
X16494200Y-11961000D02*
X16534200Y-12001000D01*
X16534200Y-11961000D02*
X16494200Y-12001000D01*
X16518840Y-9633410D02*
X16558840Y-9673410D01*
X16558840Y-9633410D02*
X16518840Y-9673410D01*
X16584880Y-9902700D02*
X16624880Y-9942700D01*
X16624880Y-9902700D02*
X16584880Y-9942700D01*
X16594080Y-11923540D02*
X16634080Y-11963540D01*
X16634080Y-11923540D02*
X16594080Y-11963540D01*
X16617900Y-8785100D02*
X16657900Y-8825100D01*
X16657900Y-8785100D02*
X16617900Y-8825100D01*
X16617900Y-8899400D02*
X16657900Y-8939400D01*
X16657900Y-8899400D02*
X16617900Y-8939400D01*
X16617900Y-9420100D02*
X16657900Y-9460100D01*
X16657900Y-9420100D02*
X16617900Y-9460100D01*
X16630600Y-7248400D02*
X16670600Y-7288400D01*
X16670600Y-7248400D02*
X16630600Y-7288400D01*
X16671240Y-9367270D02*
X16711240Y-9407270D01*
X16711240Y-9367270D02*
X16671240Y-9407270D01*
X16676320Y-9956040D02*
X16716320Y-9996040D01*
X16716320Y-9956040D02*
X16676320Y-9996040D01*
X16681400Y-7337300D02*
X16721400Y-7377300D01*
X16721400Y-7337300D02*
X16681400Y-7377300D01*
X16681400Y-8429500D02*
X16721400Y-8469500D01*
X16721400Y-8429500D02*
X16681400Y-8469500D01*
X16706800Y-9666480D02*
X16746800Y-9706480D01*
X16746800Y-9666480D02*
X16706800Y-9706480D01*
X16808400Y-7807200D02*
X16848400Y-7847200D01*
X16848400Y-7807200D02*
X16808400Y-7847200D01*
X16808400Y-7883400D02*
X16848400Y-7923400D01*
X16848400Y-7883400D02*
X16808400Y-7923400D01*
X16816020Y-9663940D02*
X16856020Y-9703940D01*
X16856020Y-9663940D02*
X16816020Y-9703940D01*
X16833800Y-8429500D02*
X16873800Y-8469500D01*
X16873800Y-8429500D02*
X16833800Y-8469500D01*
X16897300Y-7807200D02*
X16937300Y-7847200D01*
X16937300Y-7807200D02*
X16897300Y-7847200D01*
X16897300Y-7883400D02*
X16937300Y-7923400D01*
X16937300Y-7883400D02*
X16897300Y-7923400D01*
X16910000Y-7337300D02*
X16950000Y-7377300D01*
X16950000Y-7337300D02*
X16910000Y-7377300D01*
X16910000Y-7591300D02*
X16950000Y-7631300D01*
X16950000Y-7591300D02*
X16910000Y-7631300D01*
X16910000Y-9562340D02*
X16950000Y-9602340D01*
X16950000Y-9562340D02*
X16910000Y-9602340D01*
X16940835Y-9467265D02*
X16980835Y-9507265D01*
X16980835Y-9467265D02*
X16940835Y-9507265D01*
X17024300Y-8683500D02*
X17064300Y-8723500D01*
X17064300Y-8683500D02*
X17024300Y-8723500D01*
X17138600Y-7731000D02*
X17178600Y-7771000D01*
X17178600Y-7731000D02*
X17138600Y-7771000D01*
X17151300Y-6994400D02*
X17191300Y-7034400D01*
X17191300Y-6994400D02*
X17151300Y-7034400D01*
X17164000Y-8683500D02*
X17204000Y-8723500D01*
X17204000Y-8683500D02*
X17164000Y-8723500D01*
X17265600Y-8010400D02*
X17305600Y-8050400D01*
X17305600Y-8010400D02*
X17265600Y-8050400D01*
X17291000Y-6994400D02*
X17331000Y-7034400D01*
X17331000Y-6994400D02*
X17291000Y-7034400D01*
X17443400Y-7604000D02*
X17483400Y-7644000D01*
X17483400Y-7604000D02*
X17443400Y-7644000D01*
X17481500Y-8035800D02*
X17521500Y-8075800D01*
X17521500Y-8035800D02*
X17481500Y-8075800D01*
X17641520Y-9122920D02*
X17681520Y-9162920D01*
X17681520Y-9122920D02*
X17641520Y-9162920D01*
X17651680Y-10072360D02*
X17691680Y-10112360D01*
X17691680Y-10072360D02*
X17651680Y-10112360D01*
X17659300Y-7553200D02*
X17699300Y-7593200D01*
X17699300Y-7553200D02*
X17659300Y-7593200D01*
X17684700Y-7781800D02*
X17724700Y-7821800D01*
X17724700Y-7781800D02*
X17684700Y-7821800D01*
X17929200Y-9564000D02*
X17969200Y-9604000D01*
X17969200Y-9564000D02*
X17929200Y-9604000D01*
X18037760Y-9661400D02*
X18077760Y-9701400D01*
X18077760Y-9661400D02*
X18037760Y-9701400D01*
X18116500Y-8175500D02*
X18156500Y-8215500D01*
X18156500Y-8175500D02*
X18116500Y-8215500D01*
D13*
X15269040Y-7300820D02*
G75*
G03*
X15269040Y-7300820I-35000J0D01*
G01*
D11*
X15269040Y-7318320D02*
X15269040Y-7283320D01*
X15199040Y-7318320D02*
X15199040Y-7283320D01*
X15269040Y-7283320D02*
G75*
G03*
X15199040Y-7283320I-35000J0D01*
G01*
X15199040Y-7318320D02*
G75*
G03*
X15269040Y-7318320I35000J0D01*
G01*
D13*
X15286540Y-6997820D02*
G75*
G03*
X15286540Y-6997820I-35000J0D01*
G01*
D11*
X15286540Y-7022820D02*
X15286540Y-6972820D01*
X15216540Y-7022820D02*
X15216540Y-6972820D01*
X15286540Y-6972820D02*
G75*
G03*
X15216540Y-6972820I-35000J0D01*
G01*
X15216540Y-7022820D02*
G75*
G03*
X15286540Y-7022820I35000J0D01*
G01*
D13*
X15831540Y-6997820D02*
G75*
G03*
X15831540Y-6997820I-35000J0D01*
G01*
D11*
X15831540Y-7022820D02*
X15831540Y-6972820D01*
X15761540Y-7022820D02*
X15761540Y-6972820D01*
X15831540Y-6972820D02*
G75*
G03*
X15761540Y-6972820I-35000J0D01*
G01*
X15761540Y-7022820D02*
G75*
G03*
X15831540Y-7022820I35000J0D01*
G01*
D13*
X15849040Y-7300820D02*
G75*
G03*
X15849040Y-7300820I-35000J0D01*
G01*
D11*
X15849040Y-7318320D02*
X15849040Y-7283320D01*
X15779040Y-7318320D02*
X15779040Y-7283320D01*
X15849040Y-7283320D02*
G75*
G03*
X15779040Y-7283320I-35000J0D01*
G01*
X15779040Y-7318320D02*
G75*
G03*
X15849040Y-7318320I35000J0D01*
G01*
D14*
X11603160Y-11820720D02*
X11603160Y-11900720D01*
X11563160Y-11860720D02*
X11643160Y-11860720D01*
X11603160Y-12020720D02*
X11603160Y-12100720D01*
X11563160Y-12060720D02*
X11643160Y-12060720D01*
X11803160Y-11820720D02*
X11803160Y-11900720D01*
X11763160Y-11860720D02*
X11843160Y-11860720D01*
X11803160Y-12020720D02*
X11803160Y-12100720D01*
X11763160Y-12060720D02*
X11843160Y-12060720D01*
X12003160Y-11820720D02*
X12003160Y-11900720D01*
X11963160Y-11860720D02*
X12043160Y-11860720D01*
X12003160Y-12020720D02*
X12003160Y-12100720D01*
X11963160Y-12060720D02*
X12043160Y-12060720D01*
X12203160Y-11820720D02*
X12203160Y-11900720D01*
X12163160Y-11860720D02*
X12243160Y-11860720D01*
X12203160Y-12020720D02*
X12203160Y-12100720D01*
X12163160Y-12060720D02*
X12243160Y-12060720D01*
X12403160Y-11820720D02*
X12403160Y-11900720D01*
X12363160Y-11860720D02*
X12443160Y-11860720D01*
X12403160Y-12020720D02*
X12403160Y-12100720D01*
X12363160Y-12060720D02*
X12443160Y-12060720D01*
X12603160Y-11820720D02*
X12603160Y-11900720D01*
X12563160Y-11860720D02*
X12643160Y-11860720D01*
X12603160Y-12020720D02*
X12603160Y-12100720D01*
X12563160Y-12060720D02*
X12643160Y-12060720D01*
X12803160Y-11820720D02*
X12803160Y-11900720D01*
X12763160Y-11860720D02*
X12843160Y-11860720D01*
X12803160Y-12020720D02*
X12803160Y-12100720D01*
X12763160Y-12060720D02*
X12843160Y-12060720D01*
X13003160Y-11820720D02*
X13003160Y-11900720D01*
X12963160Y-11860720D02*
X13043160Y-11860720D01*
X13003160Y-12020720D02*
X13003160Y-12100720D01*
X12963160Y-12060720D02*
X13043160Y-12060720D01*
X13937880Y-9963980D02*
X13937880Y-10043980D01*
X13897880Y-10003980D02*
X13977880Y-10003980D01*
X14137880Y-9963980D02*
X14137880Y-10043980D01*
X14097880Y-10003980D02*
X14177880Y-10003980D01*
X14337880Y-9963980D02*
X14337880Y-10043980D01*
X14297880Y-10003980D02*
X14377880Y-10003980D01*
X16884280Y-9207060D02*
X16884280Y-9287060D01*
X16844280Y-9247060D02*
X16924280Y-9247060D01*
X16884940Y-8866700D02*
X16884940Y-8946700D01*
X16844940Y-8906700D02*
X16924940Y-8906700D01*
X17084280Y-9207060D02*
X17084280Y-9287060D01*
X17044280Y-9247060D02*
X17124280Y-9247060D01*
X17084940Y-8866700D02*
X17084940Y-8946700D01*
X17044940Y-8906700D02*
X17124940Y-8906700D01*
D15*
X16969091Y-10575891D02*
X16969091Y-10498109D01*
X16891309Y-10498109D01*
X16891309Y-10575891D01*
X16969091Y-10575891D01*
X17223091Y-10575891D02*
X17223091Y-10498109D01*
X17145309Y-10498109D01*
X17145309Y-10575891D01*
X17223091Y-10575891D01*
X17477091Y-10575891D02*
X17477091Y-10498109D01*
X17399309Y-10498109D01*
X17399309Y-10575891D01*
X17477091Y-10575891D01*
X17603091Y-11228891D02*
X17603091Y-11151109D01*
X17525309Y-11151109D01*
X17525309Y-11228891D01*
X17603091Y-11228891D01*
X17603091Y-11482891D02*
X17603091Y-11405109D01*
X17525309Y-11405109D01*
X17525309Y-11482891D01*
X17603091Y-11482891D01*
X17603091Y-11736891D02*
X17603091Y-11659109D01*
X17525309Y-11659109D01*
X17525309Y-11736891D01*
X17603091Y-11736891D01*
X17603091Y-11990891D02*
X17603091Y-11913109D01*
X17525309Y-11913109D01*
X17525309Y-11990891D01*
X17603091Y-11990891D01*
X17731091Y-10575891D02*
X17731091Y-10498109D01*
X17653309Y-10498109D01*
X17653309Y-10575891D01*
X17731091Y-10575891D01*
X18470031Y-9514551D02*
X18470031Y-9436769D01*
X18392249Y-9436769D01*
X18392249Y-9514551D01*
X18470031Y-9514551D01*
X18470031Y-9768551D02*
X18470031Y-9690769D01*
X18392249Y-9690769D01*
X18392249Y-9768551D01*
X18470031Y-9768551D01*
X18470031Y-10022551D02*
X18470031Y-9944769D01*
X18392249Y-9944769D01*
X18392249Y-10022551D01*
X18470031Y-10022551D01*
X18470031Y-10276551D02*
X18470031Y-10198769D01*
X18392249Y-10198769D01*
X18392249Y-10276551D01*
X18470031Y-10276551D01*
D16*
X10872000Y-12040660D02*
X10997000Y-11915660D01*
X10872000Y-11790660D01*
X10747000Y-11915660D01*
X10872000Y-12040660D01*
X10878400Y-7342000D02*
X11003400Y-7217000D01*
X10878400Y-7092000D01*
X10753400Y-7217000D01*
X10878400Y-7342000D01*
X18372600Y-12042000D02*
X18497600Y-11917000D01*
X18372600Y-11792000D01*
X18247600Y-11917000D01*
X18372600Y-12042000D01*
X18378400Y-7342000D02*
X18503400Y-7217000D01*
X18378400Y-7092000D01*
X18253400Y-7217000D01*
X18378400Y-7342000D01*
D11*
X10731128Y-12632481D02*
X10731128Y-12432481D01*
X10778747Y-12432481D01*
X10807319Y-12442005D01*
X10826366Y-12461052D01*
X10835890Y-12480100D01*
X10845414Y-12518195D01*
X10845414Y-12546767D01*
X10835890Y-12584862D01*
X10826366Y-12603910D01*
X10807319Y-12622957D01*
X10778747Y-12632481D01*
X10731128Y-12632481D01*
X10931128Y-12632481D02*
X10931128Y-12499148D01*
X10931128Y-12537243D02*
X10940652Y-12518195D01*
X10950176Y-12508671D01*
X10969223Y-12499148D01*
X10988271Y-12499148D01*
X11054938Y-12632481D02*
X11054938Y-12499148D01*
X11054938Y-12432481D02*
X11045414Y-12442005D01*
X11054938Y-12451529D01*
X11064462Y-12442005D01*
X11054938Y-12432481D01*
X11054938Y-12451529D01*
X11178747Y-12632481D02*
X11159700Y-12622957D01*
X11150176Y-12603910D01*
X11150176Y-12432481D01*
X11283509Y-12632481D02*
X11264461Y-12622957D01*
X11254938Y-12603910D01*
X11254938Y-12432481D01*
X11512081Y-12632481D02*
X11512081Y-12432481D01*
X11578747Y-12575338D01*
X11645414Y-12432481D01*
X11645414Y-12632481D01*
X11826366Y-12632481D02*
X11826366Y-12527719D01*
X11816842Y-12508671D01*
X11797795Y-12499148D01*
X11759700Y-12499148D01*
X11740652Y-12508671D01*
X11826366Y-12622957D02*
X11807319Y-12632481D01*
X11759700Y-12632481D01*
X11740652Y-12622957D01*
X11731128Y-12603910D01*
X11731128Y-12584862D01*
X11740652Y-12565814D01*
X11759700Y-12556291D01*
X11807319Y-12556291D01*
X11826366Y-12546767D01*
X11921604Y-12499148D02*
X11921604Y-12699148D01*
X11921604Y-12508671D02*
X11940652Y-12499148D01*
X11978747Y-12499148D01*
X11997795Y-12508671D01*
X12007319Y-12518195D01*
X12016842Y-12537243D01*
X12016842Y-12594386D01*
X12007319Y-12613433D01*
X11997795Y-12622957D01*
X11978747Y-12632481D01*
X11940652Y-12632481D01*
X11921604Y-12622957D01*
X12102557Y-12613433D02*
X12112081Y-12622957D01*
X12102557Y-12632481D01*
X12093033Y-12622957D01*
X12102557Y-12613433D01*
X12102557Y-12632481D01*
X12102557Y-12508671D02*
X12112081Y-12518195D01*
X12102557Y-12527719D01*
X12093033Y-12518195D01*
X12102557Y-12508671D01*
X12102557Y-12527719D01*
D12*
X10433509Y-12942005D02*
X10473509Y-12982005D01*
X10473509Y-12942005D02*
X10433509Y-12982005D01*
D11*
X10769223Y-12852481D02*
X10788271Y-12852481D01*
X10807319Y-12862005D01*
X10816843Y-12871529D01*
X10826366Y-12890576D01*
X10835890Y-12928671D01*
X10835890Y-12976291D01*
X10826366Y-13014386D01*
X10816843Y-13033433D01*
X10807319Y-13042957D01*
X10788271Y-13052481D01*
X10769223Y-13052481D01*
X10750176Y-13042957D01*
X10740652Y-13033433D01*
X10731128Y-13014386D01*
X10721604Y-12976291D01*
X10721604Y-12928671D01*
X10731128Y-12890576D01*
X10740652Y-12871529D01*
X10750176Y-12862005D01*
X10769223Y-12852481D01*
X10921604Y-13033433D02*
X10931128Y-13042957D01*
X10921604Y-13052481D01*
X10912081Y-13042957D01*
X10921604Y-13033433D01*
X10921604Y-13052481D01*
X11102557Y-12919148D02*
X11102557Y-13052481D01*
X11054938Y-12842957D02*
X11007319Y-12985814D01*
X11131128Y-12985814D01*
X11245414Y-12852481D02*
X11264461Y-12852481D01*
X11283509Y-12862005D01*
X11293033Y-12871529D01*
X11302557Y-12890576D01*
X11312081Y-12928671D01*
X11312081Y-12976291D01*
X11302557Y-13014386D01*
X11293033Y-13033433D01*
X11283509Y-13042957D01*
X11264461Y-13052481D01*
X11245414Y-13052481D01*
X11226366Y-13042957D01*
X11216842Y-13033433D01*
X11207319Y-13014386D01*
X11197795Y-12976291D01*
X11197795Y-12928671D01*
X11207319Y-12890576D01*
X11216842Y-12871529D01*
X11226366Y-12862005D01*
X11245414Y-12852481D01*
X11435890Y-12852481D02*
X11454938Y-12852481D01*
X11473985Y-12862005D01*
X11483509Y-12871529D01*
X11493033Y-12890576D01*
X11502557Y-12928671D01*
X11502557Y-12976291D01*
X11493033Y-13014386D01*
X11483509Y-13033433D01*
X11473985Y-13042957D01*
X11454938Y-13052481D01*
X11435890Y-13052481D01*
X11416842Y-13042957D01*
X11407319Y-13033433D01*
X11397795Y-13014386D01*
X11388271Y-12976291D01*
X11388271Y-12928671D01*
X11397795Y-12890576D01*
X11407319Y-12871529D01*
X11416842Y-12862005D01*
X11435890Y-12852481D01*
X11588271Y-13052481D02*
X11588271Y-12919148D01*
X11588271Y-12938195D02*
X11597795Y-12928671D01*
X11616842Y-12919148D01*
X11645414Y-12919148D01*
X11664461Y-12928671D01*
X11673985Y-12947719D01*
X11673985Y-13052481D01*
X11673985Y-12947719D02*
X11683509Y-12928671D01*
X11702557Y-12919148D01*
X11731128Y-12919148D01*
X11750176Y-12928671D01*
X11759700Y-12947719D01*
X11759700Y-13052481D01*
X11854938Y-13052481D02*
X11854938Y-12919148D01*
X11854938Y-12938195D02*
X11864461Y-12928671D01*
X11883509Y-12919148D01*
X11912081Y-12919148D01*
X11931128Y-12928671D01*
X11940652Y-12947719D01*
X11940652Y-13052481D01*
X11940652Y-12947719D02*
X11950176Y-12928671D01*
X11969223Y-12919148D01*
X11997795Y-12919148D01*
X12016842Y-12928671D01*
X12026366Y-12947719D01*
X12026366Y-13052481D01*
X12416842Y-12842957D02*
X12245414Y-13100100D01*
X12673985Y-12852481D02*
X12693033Y-12852481D01*
X12712081Y-12862005D01*
X12721604Y-12871529D01*
X12731128Y-12890576D01*
X12740652Y-12928671D01*
X12740652Y-12976291D01*
X12731128Y-13014386D01*
X12721604Y-13033433D01*
X12712081Y-13042957D01*
X12693033Y-13052481D01*
X12673985Y-13052481D01*
X12654938Y-13042957D01*
X12645414Y-13033433D01*
X12635890Y-13014386D01*
X12626366Y-12976291D01*
X12626366Y-12928671D01*
X12635890Y-12890576D01*
X12645414Y-12871529D01*
X12654938Y-12862005D01*
X12673985Y-12852481D01*
X12826366Y-13033433D02*
X12835890Y-13042957D01*
X12826366Y-13052481D01*
X12816842Y-13042957D01*
X12826366Y-13033433D01*
X12826366Y-13052481D01*
X12959700Y-12852481D02*
X12978747Y-12852481D01*
X12997795Y-12862005D01*
X13007319Y-12871529D01*
X13016842Y-12890576D01*
X13026366Y-12928671D01*
X13026366Y-12976291D01*
X13016842Y-13014386D01*
X13007319Y-13033433D01*
X12997795Y-13042957D01*
X12978747Y-13052481D01*
X12959700Y-13052481D01*
X12940652Y-13042957D01*
X12931128Y-13033433D01*
X12921604Y-13014386D01*
X12912081Y-12976291D01*
X12912081Y-12928671D01*
X12921604Y-12890576D01*
X12931128Y-12871529D01*
X12940652Y-12862005D01*
X12959700Y-12852481D01*
X13216842Y-13052481D02*
X13102557Y-13052481D01*
X13159700Y-13052481D02*
X13159700Y-12852481D01*
X13140652Y-12881052D01*
X13121604Y-12900100D01*
X13102557Y-12909624D01*
X13397795Y-12852481D02*
X13302557Y-12852481D01*
X13293033Y-12947719D01*
X13302557Y-12938195D01*
X13321604Y-12928671D01*
X13369223Y-12928671D01*
X13388271Y-12938195D01*
X13397795Y-12947719D01*
X13407319Y-12966767D01*
X13407319Y-13014386D01*
X13397795Y-13033433D01*
X13388271Y-13042957D01*
X13369223Y-13052481D01*
X13321604Y-13052481D01*
X13302557Y-13042957D01*
X13293033Y-13033433D01*
X13473985Y-12852481D02*
X13607319Y-12852481D01*
X13521604Y-13052481D01*
X13673985Y-12852481D02*
X13673985Y-12890576D01*
X13750176Y-12852481D02*
X13750176Y-12890576D01*
X14045414Y-13128671D02*
X14035890Y-13119148D01*
X14016842Y-13090576D01*
X14007319Y-13071529D01*
X13997795Y-13042957D01*
X13988271Y-12995338D01*
X13988271Y-12957243D01*
X13997795Y-12909624D01*
X14007319Y-12881052D01*
X14016842Y-12862005D01*
X14035890Y-12833433D01*
X14045414Y-12823910D01*
X14112081Y-12871529D02*
X14121604Y-12862005D01*
X14140652Y-12852481D01*
X14188271Y-12852481D01*
X14207319Y-12862005D01*
X14216842Y-12871529D01*
X14226366Y-12890576D01*
X14226366Y-12909624D01*
X14216842Y-12938195D01*
X14102557Y-13052481D01*
X14226366Y-13052481D01*
X14293033Y-12852481D02*
X14416842Y-12852481D01*
X14350176Y-12928671D01*
X14378747Y-12928671D01*
X14397795Y-12938195D01*
X14407319Y-12947719D01*
X14416842Y-12966767D01*
X14416842Y-13014386D01*
X14407319Y-13033433D01*
X14397795Y-13042957D01*
X14378747Y-13052481D01*
X14321604Y-13052481D01*
X14302557Y-13042957D01*
X14293033Y-13033433D01*
X14483509Y-12852481D02*
X14607319Y-12852481D01*
X14540652Y-12928671D01*
X14569223Y-12928671D01*
X14588271Y-12938195D01*
X14597795Y-12947719D01*
X14607319Y-12966767D01*
X14607319Y-13014386D01*
X14597795Y-13033433D01*
X14588271Y-13042957D01*
X14569223Y-13052481D01*
X14512081Y-13052481D01*
X14493033Y-13042957D01*
X14483509Y-13033433D01*
X14845414Y-13052481D02*
X14845414Y-12852481D01*
X14931128Y-13052481D02*
X14931128Y-12947719D01*
X14921604Y-12928671D01*
X14902557Y-12919148D01*
X14873985Y-12919148D01*
X14854938Y-12928671D01*
X14845414Y-12938195D01*
X15054938Y-13052481D02*
X15035890Y-13042957D01*
X15026366Y-13033433D01*
X15016842Y-13014386D01*
X15016842Y-12957243D01*
X15026366Y-12938195D01*
X15035890Y-12928671D01*
X15054938Y-12919148D01*
X15083509Y-12919148D01*
X15102557Y-12928671D01*
X15112081Y-12938195D01*
X15121604Y-12957243D01*
X15121604Y-13014386D01*
X15112081Y-13033433D01*
X15102557Y-13042957D01*
X15083509Y-13052481D01*
X15054938Y-13052481D01*
X15235890Y-13052481D02*
X15216842Y-13042957D01*
X15207319Y-13023910D01*
X15207319Y-12852481D01*
X15388271Y-13042957D02*
X15369223Y-13052481D01*
X15331128Y-13052481D01*
X15312081Y-13042957D01*
X15302557Y-13023910D01*
X15302557Y-12947719D01*
X15312081Y-12928671D01*
X15331128Y-12919148D01*
X15369223Y-12919148D01*
X15388271Y-12928671D01*
X15397795Y-12947719D01*
X15397795Y-12966767D01*
X15302557Y-12985814D01*
X15473985Y-13042957D02*
X15493033Y-13052481D01*
X15531128Y-13052481D01*
X15550176Y-13042957D01*
X15559700Y-13023910D01*
X15559700Y-13014386D01*
X15550176Y-12995338D01*
X15531128Y-12985814D01*
X15502557Y-12985814D01*
X15483509Y-12976291D01*
X15473985Y-12957243D01*
X15473985Y-12947719D01*
X15483509Y-12928671D01*
X15502557Y-12919148D01*
X15531128Y-12919148D01*
X15550176Y-12928671D01*
X15626366Y-13128671D02*
X15635890Y-13119148D01*
X15654938Y-13090576D01*
X15664461Y-13071529D01*
X15673985Y-13042957D01*
X15683509Y-12995338D01*
X15683509Y-12957243D01*
X15673985Y-12909624D01*
X15664461Y-12881052D01*
X15654938Y-12862005D01*
X15635890Y-12833433D01*
X15626366Y-12823910D01*
D13*
X10473509Y-13226005D02*
G75*
G03*
X10473509Y-13226005I-35000J0D01*
G01*
D11*
X10769223Y-13116481D02*
X10788271Y-13116481D01*
X10807319Y-13126005D01*
X10816843Y-13135529D01*
X10826366Y-13154576D01*
X10835890Y-13192671D01*
X10835890Y-13240291D01*
X10826366Y-13278386D01*
X10816843Y-13297433D01*
X10807319Y-13306957D01*
X10788271Y-13316481D01*
X10769223Y-13316481D01*
X10750176Y-13306957D01*
X10740652Y-13297433D01*
X10731128Y-13278386D01*
X10721604Y-13240291D01*
X10721604Y-13192671D01*
X10731128Y-13154576D01*
X10740652Y-13135529D01*
X10750176Y-13126005D01*
X10769223Y-13116481D01*
X10921604Y-13297433D02*
X10931128Y-13306957D01*
X10921604Y-13316481D01*
X10912081Y-13306957D01*
X10921604Y-13297433D01*
X10921604Y-13316481D01*
X10997795Y-13116481D02*
X11131128Y-13116481D01*
X11045414Y-13316481D01*
X11245414Y-13116481D02*
X11264461Y-13116481D01*
X11283509Y-13126005D01*
X11293033Y-13135529D01*
X11302557Y-13154576D01*
X11312081Y-13192671D01*
X11312081Y-13240291D01*
X11302557Y-13278386D01*
X11293033Y-13297433D01*
X11283509Y-13306957D01*
X11264461Y-13316481D01*
X11245414Y-13316481D01*
X11226366Y-13306957D01*
X11216842Y-13297433D01*
X11207319Y-13278386D01*
X11197795Y-13240291D01*
X11197795Y-13192671D01*
X11207319Y-13154576D01*
X11216842Y-13135529D01*
X11226366Y-13126005D01*
X11245414Y-13116481D01*
X11435890Y-13116481D02*
X11454938Y-13116481D01*
X11473985Y-13126005D01*
X11483509Y-13135529D01*
X11493033Y-13154576D01*
X11502557Y-13192671D01*
X11502557Y-13240291D01*
X11493033Y-13278386D01*
X11483509Y-13297433D01*
X11473985Y-13306957D01*
X11454938Y-13316481D01*
X11435890Y-13316481D01*
X11416842Y-13306957D01*
X11407319Y-13297433D01*
X11397795Y-13278386D01*
X11388271Y-13240291D01*
X11388271Y-13192671D01*
X11397795Y-13154576D01*
X11407319Y-13135529D01*
X11416842Y-13126005D01*
X11435890Y-13116481D01*
X11588271Y-13316481D02*
X11588271Y-13183148D01*
X11588271Y-13202195D02*
X11597795Y-13192671D01*
X11616842Y-13183148D01*
X11645414Y-13183148D01*
X11664461Y-13192671D01*
X11673985Y-13211719D01*
X11673985Y-13316481D01*
X11673985Y-13211719D02*
X11683509Y-13192671D01*
X11702557Y-13183148D01*
X11731128Y-13183148D01*
X11750176Y-13192671D01*
X11759700Y-13211719D01*
X11759700Y-13316481D01*
X11854938Y-13316481D02*
X11854938Y-13183148D01*
X11854938Y-13202195D02*
X11864461Y-13192671D01*
X11883509Y-13183148D01*
X11912081Y-13183148D01*
X11931128Y-13192671D01*
X11940652Y-13211719D01*
X11940652Y-13316481D01*
X11940652Y-13211719D02*
X11950176Y-13192671D01*
X11969223Y-13183148D01*
X11997795Y-13183148D01*
X12016842Y-13192671D01*
X12026366Y-13211719D01*
X12026366Y-13316481D01*
X12416842Y-13106957D02*
X12245414Y-13364100D01*
X12673985Y-13116481D02*
X12693033Y-13116481D01*
X12712081Y-13126005D01*
X12721604Y-13135529D01*
X12731128Y-13154576D01*
X12740652Y-13192671D01*
X12740652Y-13240291D01*
X12731128Y-13278386D01*
X12721604Y-13297433D01*
X12712081Y-13306957D01*
X12693033Y-13316481D01*
X12673985Y-13316481D01*
X12654938Y-13306957D01*
X12645414Y-13297433D01*
X12635890Y-13278386D01*
X12626366Y-13240291D01*
X12626366Y-13192671D01*
X12635890Y-13154576D01*
X12645414Y-13135529D01*
X12654938Y-13126005D01*
X12673985Y-13116481D01*
X12826366Y-13297433D02*
X12835890Y-13306957D01*
X12826366Y-13316481D01*
X12816842Y-13306957D01*
X12826366Y-13297433D01*
X12826366Y-13316481D01*
X12959700Y-13116481D02*
X12978747Y-13116481D01*
X12997795Y-13126005D01*
X13007319Y-13135529D01*
X13016842Y-13154576D01*
X13026366Y-13192671D01*
X13026366Y-13240291D01*
X13016842Y-13278386D01*
X13007319Y-13297433D01*
X12997795Y-13306957D01*
X12978747Y-13316481D01*
X12959700Y-13316481D01*
X12940652Y-13306957D01*
X12931128Y-13297433D01*
X12921604Y-13278386D01*
X12912081Y-13240291D01*
X12912081Y-13192671D01*
X12921604Y-13154576D01*
X12931128Y-13135529D01*
X12940652Y-13126005D01*
X12959700Y-13116481D01*
X13102557Y-13135529D02*
X13112081Y-13126005D01*
X13131128Y-13116481D01*
X13178747Y-13116481D01*
X13197795Y-13126005D01*
X13207319Y-13135529D01*
X13216842Y-13154576D01*
X13216842Y-13173624D01*
X13207319Y-13202195D01*
X13093033Y-13316481D01*
X13216842Y-13316481D01*
X13283509Y-13116481D02*
X13416842Y-13116481D01*
X13331128Y-13316481D01*
X13578747Y-13116481D02*
X13540652Y-13116481D01*
X13521604Y-13126005D01*
X13512081Y-13135529D01*
X13493033Y-13164100D01*
X13483509Y-13202195D01*
X13483509Y-13278386D01*
X13493033Y-13297433D01*
X13502557Y-13306957D01*
X13521604Y-13316481D01*
X13559700Y-13316481D01*
X13578747Y-13306957D01*
X13588271Y-13297433D01*
X13597795Y-13278386D01*
X13597795Y-13230767D01*
X13588271Y-13211719D01*
X13578747Y-13202195D01*
X13559700Y-13192671D01*
X13521604Y-13192671D01*
X13502557Y-13202195D01*
X13493033Y-13211719D01*
X13483509Y-13230767D01*
X13673985Y-13116481D02*
X13673985Y-13154576D01*
X13750176Y-13116481D02*
X13750176Y-13154576D01*
X14045414Y-13392671D02*
X14035890Y-13383148D01*
X14016842Y-13354576D01*
X14007319Y-13335529D01*
X13997795Y-13306957D01*
X13988271Y-13259338D01*
X13988271Y-13221243D01*
X13997795Y-13173624D01*
X14007319Y-13145052D01*
X14016842Y-13126005D01*
X14035890Y-13097433D01*
X14045414Y-13087910D01*
X14159700Y-13116481D02*
X14178747Y-13116481D01*
X14197795Y-13126005D01*
X14207319Y-13135529D01*
X14216842Y-13154576D01*
X14226366Y-13192671D01*
X14226366Y-13240291D01*
X14216842Y-13278386D01*
X14207319Y-13297433D01*
X14197795Y-13306957D01*
X14178747Y-13316481D01*
X14159700Y-13316481D01*
X14140652Y-13306957D01*
X14131128Y-13297433D01*
X14121604Y-13278386D01*
X14112081Y-13240291D01*
X14112081Y-13192671D01*
X14121604Y-13154576D01*
X14131128Y-13135529D01*
X14140652Y-13126005D01*
X14159700Y-13116481D01*
X14464461Y-13316481D02*
X14464461Y-13116481D01*
X14550176Y-13316481D02*
X14550176Y-13211719D01*
X14540652Y-13192671D01*
X14521604Y-13183148D01*
X14493033Y-13183148D01*
X14473985Y-13192671D01*
X14464461Y-13202195D01*
X14673985Y-13316481D02*
X14654938Y-13306957D01*
X14645414Y-13297433D01*
X14635890Y-13278386D01*
X14635890Y-13221243D01*
X14645414Y-13202195D01*
X14654938Y-13192671D01*
X14673985Y-13183148D01*
X14702557Y-13183148D01*
X14721604Y-13192671D01*
X14731128Y-13202195D01*
X14740652Y-13221243D01*
X14740652Y-13278386D01*
X14731128Y-13297433D01*
X14721604Y-13306957D01*
X14702557Y-13316481D01*
X14673985Y-13316481D01*
X14854938Y-13316481D02*
X14835890Y-13306957D01*
X14826366Y-13287910D01*
X14826366Y-13116481D01*
X15007319Y-13306957D02*
X14988271Y-13316481D01*
X14950176Y-13316481D01*
X14931128Y-13306957D01*
X14921604Y-13287910D01*
X14921604Y-13211719D01*
X14931128Y-13192671D01*
X14950176Y-13183148D01*
X14988271Y-13183148D01*
X15007319Y-13192671D01*
X15016842Y-13211719D01*
X15016842Y-13230767D01*
X14921604Y-13249814D01*
X15093033Y-13306957D02*
X15112081Y-13316481D01*
X15150176Y-13316481D01*
X15169223Y-13306957D01*
X15178747Y-13287910D01*
X15178747Y-13278386D01*
X15169223Y-13259338D01*
X15150176Y-13249814D01*
X15121604Y-13249814D01*
X15102557Y-13240291D01*
X15093033Y-13221243D01*
X15093033Y-13211719D01*
X15102557Y-13192671D01*
X15121604Y-13183148D01*
X15150176Y-13183148D01*
X15169223Y-13192671D01*
X15416842Y-13240291D02*
X15569223Y-13240291D01*
X15493033Y-13316481D02*
X15493033Y-13164100D01*
X15902557Y-13183148D02*
X15902557Y-13316481D01*
X15854938Y-13106957D02*
X15807319Y-13249814D01*
X15931128Y-13249814D01*
X16150176Y-13306957D02*
X16169223Y-13316481D01*
X16207319Y-13316481D01*
X16226366Y-13306957D01*
X16235890Y-13287910D01*
X16235890Y-13278386D01*
X16226366Y-13259338D01*
X16207319Y-13249814D01*
X16178747Y-13249814D01*
X16159700Y-13240291D01*
X16150176Y-13221243D01*
X16150176Y-13211719D01*
X16159700Y-13192671D01*
X16178747Y-13183148D01*
X16207319Y-13183148D01*
X16226366Y-13192671D01*
X16350176Y-13316481D02*
X16331128Y-13306957D01*
X16321604Y-13287910D01*
X16321604Y-13116481D01*
X16454938Y-13316481D02*
X16435890Y-13306957D01*
X16426366Y-13297433D01*
X16416842Y-13278386D01*
X16416842Y-13221243D01*
X16426366Y-13202195D01*
X16435890Y-13192671D01*
X16454938Y-13183148D01*
X16483509Y-13183148D01*
X16502557Y-13192671D01*
X16512081Y-13202195D01*
X16521604Y-13221243D01*
X16521604Y-13278386D01*
X16512081Y-13297433D01*
X16502557Y-13306957D01*
X16483509Y-13316481D01*
X16454938Y-13316481D01*
X16578747Y-13183148D02*
X16654938Y-13183148D01*
X16607319Y-13116481D02*
X16607319Y-13287910D01*
X16616842Y-13306957D01*
X16635890Y-13316481D01*
X16654938Y-13316481D01*
X16712081Y-13306957D02*
X16731128Y-13316481D01*
X16769223Y-13316481D01*
X16788271Y-13306957D01*
X16797795Y-13287910D01*
X16797795Y-13278386D01*
X16788271Y-13259338D01*
X16769223Y-13249814D01*
X16740652Y-13249814D01*
X16721604Y-13240291D01*
X16712081Y-13221243D01*
X16712081Y-13211719D01*
X16721604Y-13192671D01*
X16740652Y-13183148D01*
X16769223Y-13183148D01*
X16788271Y-13192671D01*
X16864462Y-13392671D02*
X16873985Y-13383148D01*
X16893033Y-13354576D01*
X16902557Y-13335529D01*
X16912081Y-13306957D01*
X16921604Y-13259338D01*
X16921604Y-13221243D01*
X16912081Y-13173624D01*
X16902557Y-13145052D01*
X16893033Y-13126005D01*
X16873985Y-13097433D01*
X16864462Y-13087910D01*
D14*
X10433509Y-13450005D02*
X10433509Y-13530005D01*
X10393509Y-13490005D02*
X10473509Y-13490005D01*
D11*
X10769223Y-13380481D02*
X10788271Y-13380481D01*
X10807319Y-13390005D01*
X10816843Y-13399529D01*
X10826366Y-13418576D01*
X10835890Y-13456671D01*
X10835890Y-13504291D01*
X10826366Y-13542386D01*
X10816843Y-13561433D01*
X10807319Y-13570957D01*
X10788271Y-13580481D01*
X10769223Y-13580481D01*
X10750176Y-13570957D01*
X10740652Y-13561433D01*
X10731128Y-13542386D01*
X10721604Y-13504291D01*
X10721604Y-13456671D01*
X10731128Y-13418576D01*
X10740652Y-13399529D01*
X10750176Y-13390005D01*
X10769223Y-13380481D01*
X10921604Y-13561433D02*
X10931128Y-13570957D01*
X10921604Y-13580481D01*
X10912081Y-13570957D01*
X10921604Y-13561433D01*
X10921604Y-13580481D01*
X11045414Y-13466195D02*
X11026366Y-13456671D01*
X11016843Y-13447148D01*
X11007319Y-13428100D01*
X11007319Y-13418576D01*
X11016843Y-13399529D01*
X11026366Y-13390005D01*
X11045414Y-13380481D01*
X11083509Y-13380481D01*
X11102557Y-13390005D01*
X11112081Y-13399529D01*
X11121604Y-13418576D01*
X11121604Y-13428100D01*
X11112081Y-13447148D01*
X11102557Y-13456671D01*
X11083509Y-13466195D01*
X11045414Y-13466195D01*
X11026366Y-13475719D01*
X11016843Y-13485243D01*
X11007319Y-13504291D01*
X11007319Y-13542386D01*
X11016843Y-13561433D01*
X11026366Y-13570957D01*
X11045414Y-13580481D01*
X11083509Y-13580481D01*
X11102557Y-13570957D01*
X11112081Y-13561433D01*
X11121604Y-13542386D01*
X11121604Y-13504291D01*
X11112081Y-13485243D01*
X11102557Y-13475719D01*
X11083509Y-13466195D01*
X11245414Y-13380481D02*
X11264461Y-13380481D01*
X11283509Y-13390005D01*
X11293033Y-13399529D01*
X11302557Y-13418576D01*
X11312081Y-13456671D01*
X11312081Y-13504291D01*
X11302557Y-13542386D01*
X11293033Y-13561433D01*
X11283509Y-13570957D01*
X11264461Y-13580481D01*
X11245414Y-13580481D01*
X11226366Y-13570957D01*
X11216842Y-13561433D01*
X11207319Y-13542386D01*
X11197795Y-13504291D01*
X11197795Y-13456671D01*
X11207319Y-13418576D01*
X11216842Y-13399529D01*
X11226366Y-13390005D01*
X11245414Y-13380481D01*
X11435890Y-13380481D02*
X11454938Y-13380481D01*
X11473985Y-13390005D01*
X11483509Y-13399529D01*
X11493033Y-13418576D01*
X11502557Y-13456671D01*
X11502557Y-13504291D01*
X11493033Y-13542386D01*
X11483509Y-13561433D01*
X11473985Y-13570957D01*
X11454938Y-13580481D01*
X11435890Y-13580481D01*
X11416842Y-13570957D01*
X11407319Y-13561433D01*
X11397795Y-13542386D01*
X11388271Y-13504291D01*
X11388271Y-13456671D01*
X11397795Y-13418576D01*
X11407319Y-13399529D01*
X11416842Y-13390005D01*
X11435890Y-13380481D01*
X11588271Y-13580481D02*
X11588271Y-13447148D01*
X11588271Y-13466195D02*
X11597795Y-13456671D01*
X11616842Y-13447148D01*
X11645414Y-13447148D01*
X11664461Y-13456671D01*
X11673985Y-13475719D01*
X11673985Y-13580481D01*
X11673985Y-13475719D02*
X11683509Y-13456671D01*
X11702557Y-13447148D01*
X11731128Y-13447148D01*
X11750176Y-13456671D01*
X11759700Y-13475719D01*
X11759700Y-13580481D01*
X11854938Y-13580481D02*
X11854938Y-13447148D01*
X11854938Y-13466195D02*
X11864461Y-13456671D01*
X11883509Y-13447148D01*
X11912081Y-13447148D01*
X11931128Y-13456671D01*
X11940652Y-13475719D01*
X11940652Y-13580481D01*
X11940652Y-13475719D02*
X11950176Y-13456671D01*
X11969223Y-13447148D01*
X11997795Y-13447148D01*
X12016842Y-13456671D01*
X12026366Y-13475719D01*
X12026366Y-13580481D01*
X12416842Y-13370957D02*
X12245414Y-13628100D01*
X12673985Y-13380481D02*
X12693033Y-13380481D01*
X12712081Y-13390005D01*
X12721604Y-13399529D01*
X12731128Y-13418576D01*
X12740652Y-13456671D01*
X12740652Y-13504291D01*
X12731128Y-13542386D01*
X12721604Y-13561433D01*
X12712081Y-13570957D01*
X12693033Y-13580481D01*
X12673985Y-13580481D01*
X12654938Y-13570957D01*
X12645414Y-13561433D01*
X12635890Y-13542386D01*
X12626366Y-13504291D01*
X12626366Y-13456671D01*
X12635890Y-13418576D01*
X12645414Y-13399529D01*
X12654938Y-13390005D01*
X12673985Y-13380481D01*
X12826366Y-13561433D02*
X12835890Y-13570957D01*
X12826366Y-13580481D01*
X12816842Y-13570957D01*
X12826366Y-13561433D01*
X12826366Y-13580481D01*
X12959700Y-13380481D02*
X12978747Y-13380481D01*
X12997795Y-13390005D01*
X13007319Y-13399529D01*
X13016842Y-13418576D01*
X13026366Y-13456671D01*
X13026366Y-13504291D01*
X13016842Y-13542386D01*
X13007319Y-13561433D01*
X12997795Y-13570957D01*
X12978747Y-13580481D01*
X12959700Y-13580481D01*
X12940652Y-13570957D01*
X12931128Y-13561433D01*
X12921604Y-13542386D01*
X12912081Y-13504291D01*
X12912081Y-13456671D01*
X12921604Y-13418576D01*
X12931128Y-13399529D01*
X12940652Y-13390005D01*
X12959700Y-13380481D01*
X13093033Y-13380481D02*
X13216842Y-13380481D01*
X13150176Y-13456671D01*
X13178747Y-13456671D01*
X13197795Y-13466195D01*
X13207319Y-13475719D01*
X13216842Y-13494767D01*
X13216842Y-13542386D01*
X13207319Y-13561433D01*
X13197795Y-13570957D01*
X13178747Y-13580481D01*
X13121604Y-13580481D01*
X13102557Y-13570957D01*
X13093033Y-13561433D01*
X13407319Y-13580481D02*
X13293033Y-13580481D01*
X13350176Y-13580481D02*
X13350176Y-13380481D01*
X13331128Y-13409052D01*
X13312081Y-13428100D01*
X13293033Y-13437624D01*
X13588271Y-13380481D02*
X13493033Y-13380481D01*
X13483509Y-13475719D01*
X13493033Y-13466195D01*
X13512081Y-13456671D01*
X13559700Y-13456671D01*
X13578747Y-13466195D01*
X13588271Y-13475719D01*
X13597795Y-13494767D01*
X13597795Y-13542386D01*
X13588271Y-13561433D01*
X13578747Y-13570957D01*
X13559700Y-13580481D01*
X13512081Y-13580481D01*
X13493033Y-13570957D01*
X13483509Y-13561433D01*
X13673985Y-13380481D02*
X13673985Y-13418576D01*
X13750176Y-13380481D02*
X13750176Y-13418576D01*
X14045414Y-13656671D02*
X14035890Y-13647148D01*
X14016842Y-13618576D01*
X14007319Y-13599529D01*
X13997795Y-13570957D01*
X13988271Y-13523338D01*
X13988271Y-13485243D01*
X13997795Y-13437624D01*
X14007319Y-13409052D01*
X14016842Y-13390005D01*
X14035890Y-13361433D01*
X14045414Y-13351910D01*
X14112081Y-13399529D02*
X14121604Y-13390005D01*
X14140652Y-13380481D01*
X14188271Y-13380481D01*
X14207319Y-13390005D01*
X14216842Y-13399529D01*
X14226366Y-13418576D01*
X14226366Y-13437624D01*
X14216842Y-13466195D01*
X14102557Y-13580481D01*
X14226366Y-13580481D01*
X14293033Y-13380481D02*
X14416842Y-13380481D01*
X14350176Y-13456671D01*
X14378747Y-13456671D01*
X14397795Y-13466195D01*
X14407319Y-13475719D01*
X14416842Y-13494767D01*
X14416842Y-13542386D01*
X14407319Y-13561433D01*
X14397795Y-13570957D01*
X14378747Y-13580481D01*
X14321604Y-13580481D01*
X14302557Y-13570957D01*
X14293033Y-13561433D01*
X14654938Y-13580481D02*
X14654938Y-13380481D01*
X14740652Y-13580481D02*
X14740652Y-13475719D01*
X14731128Y-13456671D01*
X14712081Y-13447148D01*
X14683509Y-13447148D01*
X14664461Y-13456671D01*
X14654938Y-13466195D01*
X14864461Y-13580481D02*
X14845414Y-13570957D01*
X14835890Y-13561433D01*
X14826366Y-13542386D01*
X14826366Y-13485243D01*
X14835890Y-13466195D01*
X14845414Y-13456671D01*
X14864461Y-13447148D01*
X14893033Y-13447148D01*
X14912081Y-13456671D01*
X14921604Y-13466195D01*
X14931128Y-13485243D01*
X14931128Y-13542386D01*
X14921604Y-13561433D01*
X14912081Y-13570957D01*
X14893033Y-13580481D01*
X14864461Y-13580481D01*
X15045414Y-13580481D02*
X15026366Y-13570957D01*
X15016842Y-13551910D01*
X15016842Y-13380481D01*
X15197795Y-13570957D02*
X15178747Y-13580481D01*
X15140652Y-13580481D01*
X15121604Y-13570957D01*
X15112081Y-13551910D01*
X15112081Y-13475719D01*
X15121604Y-13456671D01*
X15140652Y-13447148D01*
X15178747Y-13447148D01*
X15197795Y-13456671D01*
X15207319Y-13475719D01*
X15207319Y-13494767D01*
X15112081Y-13513814D01*
X15283509Y-13570957D02*
X15302557Y-13580481D01*
X15340652Y-13580481D01*
X15359700Y-13570957D01*
X15369223Y-13551910D01*
X15369223Y-13542386D01*
X15359700Y-13523338D01*
X15340652Y-13513814D01*
X15312081Y-13513814D01*
X15293033Y-13504291D01*
X15283509Y-13485243D01*
X15283509Y-13475719D01*
X15293033Y-13456671D01*
X15312081Y-13447148D01*
X15340652Y-13447148D01*
X15359700Y-13456671D01*
X15435890Y-13656671D02*
X15445414Y-13647148D01*
X15464461Y-13618576D01*
X15473985Y-13599529D01*
X15483509Y-13570957D01*
X15493033Y-13523338D01*
X15493033Y-13485243D01*
X15483509Y-13437624D01*
X15473985Y-13409052D01*
X15464461Y-13390005D01*
X15445414Y-13361433D01*
X15435890Y-13351910D01*
D15*
X10457400Y-13792896D02*
X10457400Y-13715114D01*
X10379618Y-13715114D01*
X10379618Y-13792896D01*
X10457400Y-13792896D01*
D11*
X10835890Y-13844481D02*
X10721604Y-13844481D01*
X10778747Y-13844481D02*
X10778747Y-13644481D01*
X10759700Y-13673052D01*
X10740652Y-13692100D01*
X10721604Y-13701624D01*
X10921604Y-13825433D02*
X10931128Y-13834957D01*
X10921604Y-13844481D01*
X10912081Y-13834957D01*
X10921604Y-13825433D01*
X10921604Y-13844481D01*
X11121604Y-13844481D02*
X11007319Y-13844481D01*
X11064462Y-13844481D02*
X11064462Y-13644481D01*
X11045414Y-13673052D01*
X11026366Y-13692100D01*
X11007319Y-13701624D01*
X11245414Y-13644481D02*
X11264461Y-13644481D01*
X11283509Y-13654005D01*
X11293033Y-13663529D01*
X11302557Y-13682576D01*
X11312081Y-13720671D01*
X11312081Y-13768291D01*
X11302557Y-13806386D01*
X11293033Y-13825433D01*
X11283509Y-13834957D01*
X11264461Y-13844481D01*
X11245414Y-13844481D01*
X11226366Y-13834957D01*
X11216842Y-13825433D01*
X11207319Y-13806386D01*
X11197795Y-13768291D01*
X11197795Y-13720671D01*
X11207319Y-13682576D01*
X11216842Y-13663529D01*
X11226366Y-13654005D01*
X11245414Y-13644481D01*
X11435890Y-13644481D02*
X11454938Y-13644481D01*
X11473985Y-13654005D01*
X11483509Y-13663529D01*
X11493033Y-13682576D01*
X11502557Y-13720671D01*
X11502557Y-13768291D01*
X11493033Y-13806386D01*
X11483509Y-13825433D01*
X11473985Y-13834957D01*
X11454938Y-13844481D01*
X11435890Y-13844481D01*
X11416842Y-13834957D01*
X11407319Y-13825433D01*
X11397795Y-13806386D01*
X11388271Y-13768291D01*
X11388271Y-13720671D01*
X11397795Y-13682576D01*
X11407319Y-13663529D01*
X11416842Y-13654005D01*
X11435890Y-13644481D01*
X11588271Y-13844481D02*
X11588271Y-13711148D01*
X11588271Y-13730195D02*
X11597795Y-13720671D01*
X11616842Y-13711148D01*
X11645414Y-13711148D01*
X11664461Y-13720671D01*
X11673985Y-13739719D01*
X11673985Y-13844481D01*
X11673985Y-13739719D02*
X11683509Y-13720671D01*
X11702557Y-13711148D01*
X11731128Y-13711148D01*
X11750176Y-13720671D01*
X11759700Y-13739719D01*
X11759700Y-13844481D01*
X11854938Y-13844481D02*
X11854938Y-13711148D01*
X11854938Y-13730195D02*
X11864461Y-13720671D01*
X11883509Y-13711148D01*
X11912081Y-13711148D01*
X11931128Y-13720671D01*
X11940652Y-13739719D01*
X11940652Y-13844481D01*
X11940652Y-13739719D02*
X11950176Y-13720671D01*
X11969223Y-13711148D01*
X11997795Y-13711148D01*
X12016842Y-13720671D01*
X12026366Y-13739719D01*
X12026366Y-13844481D01*
X12416842Y-13634957D02*
X12245414Y-13892100D01*
X12673985Y-13644481D02*
X12693033Y-13644481D01*
X12712081Y-13654005D01*
X12721604Y-13663529D01*
X12731128Y-13682576D01*
X12740652Y-13720671D01*
X12740652Y-13768291D01*
X12731128Y-13806386D01*
X12721604Y-13825433D01*
X12712081Y-13834957D01*
X12693033Y-13844481D01*
X12673985Y-13844481D01*
X12654938Y-13834957D01*
X12645414Y-13825433D01*
X12635890Y-13806386D01*
X12626366Y-13768291D01*
X12626366Y-13720671D01*
X12635890Y-13682576D01*
X12645414Y-13663529D01*
X12654938Y-13654005D01*
X12673985Y-13644481D01*
X12826366Y-13825433D02*
X12835890Y-13834957D01*
X12826366Y-13844481D01*
X12816842Y-13834957D01*
X12826366Y-13825433D01*
X12826366Y-13844481D01*
X12959700Y-13644481D02*
X12978747Y-13644481D01*
X12997795Y-13654005D01*
X13007319Y-13663529D01*
X13016842Y-13682576D01*
X13026366Y-13720671D01*
X13026366Y-13768291D01*
X13016842Y-13806386D01*
X13007319Y-13825433D01*
X12997795Y-13834957D01*
X12978747Y-13844481D01*
X12959700Y-13844481D01*
X12940652Y-13834957D01*
X12931128Y-13825433D01*
X12921604Y-13806386D01*
X12912081Y-13768291D01*
X12912081Y-13720671D01*
X12921604Y-13682576D01*
X12931128Y-13663529D01*
X12940652Y-13654005D01*
X12959700Y-13644481D01*
X13197795Y-13711148D02*
X13197795Y-13844481D01*
X13150176Y-13634957D02*
X13102557Y-13777814D01*
X13226366Y-13777814D01*
X13283509Y-13644481D02*
X13407319Y-13644481D01*
X13340652Y-13720671D01*
X13369223Y-13720671D01*
X13388271Y-13730195D01*
X13397795Y-13739719D01*
X13407319Y-13758767D01*
X13407319Y-13806386D01*
X13397795Y-13825433D01*
X13388271Y-13834957D01*
X13369223Y-13844481D01*
X13312081Y-13844481D01*
X13293033Y-13834957D01*
X13283509Y-13825433D01*
X13473985Y-13644481D02*
X13597795Y-13644481D01*
X13531128Y-13720671D01*
X13559700Y-13720671D01*
X13578747Y-13730195D01*
X13588271Y-13739719D01*
X13597795Y-13758767D01*
X13597795Y-13806386D01*
X13588271Y-13825433D01*
X13578747Y-13834957D01*
X13559700Y-13844481D01*
X13502557Y-13844481D01*
X13483509Y-13834957D01*
X13473985Y-13825433D01*
X13673985Y-13644481D02*
X13673985Y-13682576D01*
X13750176Y-13644481D02*
X13750176Y-13682576D01*
X14045414Y-13920671D02*
X14035890Y-13911148D01*
X14016842Y-13882576D01*
X14007319Y-13863529D01*
X13997795Y-13834957D01*
X13988271Y-13787338D01*
X13988271Y-13749243D01*
X13997795Y-13701624D01*
X14007319Y-13673052D01*
X14016842Y-13654005D01*
X14035890Y-13625433D01*
X14045414Y-13615910D01*
X14226366Y-13844481D02*
X14112081Y-13844481D01*
X14169223Y-13844481D02*
X14169223Y-13644481D01*
X14150176Y-13673052D01*
X14131128Y-13692100D01*
X14112081Y-13701624D01*
X14302557Y-13663529D02*
X14312081Y-13654005D01*
X14331128Y-13644481D01*
X14378747Y-13644481D01*
X14397795Y-13654005D01*
X14407319Y-13663529D01*
X14416842Y-13682576D01*
X14416842Y-13701624D01*
X14407319Y-13730195D01*
X14293033Y-13844481D01*
X14416842Y-13844481D01*
X14654938Y-13844481D02*
X14654938Y-13644481D01*
X14740652Y-13844481D02*
X14740652Y-13739719D01*
X14731128Y-13720671D01*
X14712081Y-13711148D01*
X14683509Y-13711148D01*
X14664461Y-13720671D01*
X14654938Y-13730195D01*
X14864461Y-13844481D02*
X14845414Y-13834957D01*
X14835890Y-13825433D01*
X14826366Y-13806386D01*
X14826366Y-13749243D01*
X14835890Y-13730195D01*
X14845414Y-13720671D01*
X14864461Y-13711148D01*
X14893033Y-13711148D01*
X14912081Y-13720671D01*
X14921604Y-13730195D01*
X14931128Y-13749243D01*
X14931128Y-13806386D01*
X14921604Y-13825433D01*
X14912081Y-13834957D01*
X14893033Y-13844481D01*
X14864461Y-13844481D01*
X15045414Y-13844481D02*
X15026366Y-13834957D01*
X15016842Y-13815910D01*
X15016842Y-13644481D01*
X15197795Y-13834957D02*
X15178747Y-13844481D01*
X15140652Y-13844481D01*
X15121604Y-13834957D01*
X15112081Y-13815910D01*
X15112081Y-13739719D01*
X15121604Y-13720671D01*
X15140652Y-13711148D01*
X15178747Y-13711148D01*
X15197795Y-13720671D01*
X15207319Y-13739719D01*
X15207319Y-13758767D01*
X15112081Y-13777814D01*
X15283509Y-13834957D02*
X15302557Y-13844481D01*
X15340652Y-13844481D01*
X15359700Y-13834957D01*
X15369223Y-13815910D01*
X15369223Y-13806386D01*
X15359700Y-13787338D01*
X15340652Y-13777814D01*
X15312081Y-13777814D01*
X15293033Y-13768291D01*
X15283509Y-13749243D01*
X15283509Y-13739719D01*
X15293033Y-13720671D01*
X15312081Y-13711148D01*
X15340652Y-13711148D01*
X15359700Y-13720671D01*
X15435890Y-13920671D02*
X15445414Y-13911148D01*
X15464461Y-13882576D01*
X15473985Y-13863529D01*
X15483509Y-13834957D01*
X15493033Y-13787338D01*
X15493033Y-13749243D01*
X15483509Y-13701624D01*
X15473985Y-13673052D01*
X15464461Y-13654005D01*
X15445414Y-13625433D01*
X15435890Y-13615910D01*
X10373509Y-14118005D02*
X10473509Y-14018005D01*
X10373509Y-13918005D01*
X10273509Y-14018005D01*
X10373509Y-14118005D01*
X10721604Y-13927529D02*
X10731128Y-13918005D01*
X10750176Y-13908481D01*
X10797795Y-13908481D01*
X10816843Y-13918005D01*
X10826366Y-13927529D01*
X10835890Y-13946576D01*
X10835890Y-13965624D01*
X10826366Y-13994195D01*
X10712081Y-14108481D01*
X10835890Y-14108481D01*
X10921604Y-14089433D02*
X10931128Y-14098957D01*
X10921604Y-14108481D01*
X10912081Y-14098957D01*
X10921604Y-14089433D01*
X10921604Y-14108481D01*
X11112081Y-13908481D02*
X11016843Y-13908481D01*
X11007319Y-14003719D01*
X11016843Y-13994195D01*
X11035890Y-13984671D01*
X11083509Y-13984671D01*
X11102557Y-13994195D01*
X11112081Y-14003719D01*
X11121604Y-14022767D01*
X11121604Y-14070386D01*
X11112081Y-14089433D01*
X11102557Y-14098957D01*
X11083509Y-14108481D01*
X11035890Y-14108481D01*
X11016843Y-14098957D01*
X11007319Y-14089433D01*
X11245414Y-13908481D02*
X11264461Y-13908481D01*
X11283509Y-13918005D01*
X11293033Y-13927529D01*
X11302557Y-13946576D01*
X11312081Y-13984671D01*
X11312081Y-14032291D01*
X11302557Y-14070386D01*
X11293033Y-14089433D01*
X11283509Y-14098957D01*
X11264461Y-14108481D01*
X11245414Y-14108481D01*
X11226366Y-14098957D01*
X11216842Y-14089433D01*
X11207319Y-14070386D01*
X11197795Y-14032291D01*
X11197795Y-13984671D01*
X11207319Y-13946576D01*
X11216842Y-13927529D01*
X11226366Y-13918005D01*
X11245414Y-13908481D01*
X11435890Y-13908481D02*
X11454938Y-13908481D01*
X11473985Y-13918005D01*
X11483509Y-13927529D01*
X11493033Y-13946576D01*
X11502557Y-13984671D01*
X11502557Y-14032291D01*
X11493033Y-14070386D01*
X11483509Y-14089433D01*
X11473985Y-14098957D01*
X11454938Y-14108481D01*
X11435890Y-14108481D01*
X11416842Y-14098957D01*
X11407319Y-14089433D01*
X11397795Y-14070386D01*
X11388271Y-14032291D01*
X11388271Y-13984671D01*
X11397795Y-13946576D01*
X11407319Y-13927529D01*
X11416842Y-13918005D01*
X11435890Y-13908481D01*
X11588271Y-14108481D02*
X11588271Y-13975148D01*
X11588271Y-13994195D02*
X11597795Y-13984671D01*
X11616842Y-13975148D01*
X11645414Y-13975148D01*
X11664461Y-13984671D01*
X11673985Y-14003719D01*
X11673985Y-14108481D01*
X11673985Y-14003719D02*
X11683509Y-13984671D01*
X11702557Y-13975148D01*
X11731128Y-13975148D01*
X11750176Y-13984671D01*
X11759700Y-14003719D01*
X11759700Y-14108481D01*
X11854938Y-14108481D02*
X11854938Y-13975148D01*
X11854938Y-13994195D02*
X11864461Y-13984671D01*
X11883509Y-13975148D01*
X11912081Y-13975148D01*
X11931128Y-13984671D01*
X11940652Y-14003719D01*
X11940652Y-14108481D01*
X11940652Y-14003719D02*
X11950176Y-13984671D01*
X11969223Y-13975148D01*
X11997795Y-13975148D01*
X12016842Y-13984671D01*
X12026366Y-14003719D01*
X12026366Y-14108481D01*
X12416842Y-13898957D02*
X12245414Y-14156100D01*
X12673985Y-13908481D02*
X12693033Y-13908481D01*
X12712081Y-13918005D01*
X12721604Y-13927529D01*
X12731128Y-13946576D01*
X12740652Y-13984671D01*
X12740652Y-14032291D01*
X12731128Y-14070386D01*
X12721604Y-14089433D01*
X12712081Y-14098957D01*
X12693033Y-14108481D01*
X12673985Y-14108481D01*
X12654938Y-14098957D01*
X12645414Y-14089433D01*
X12635890Y-14070386D01*
X12626366Y-14032291D01*
X12626366Y-13984671D01*
X12635890Y-13946576D01*
X12645414Y-13927529D01*
X12654938Y-13918005D01*
X12673985Y-13908481D01*
X12826366Y-14089433D02*
X12835890Y-14098957D01*
X12826366Y-14108481D01*
X12816842Y-14098957D01*
X12826366Y-14089433D01*
X12826366Y-14108481D01*
X12959700Y-13908481D02*
X12978747Y-13908481D01*
X12997795Y-13918005D01*
X13007319Y-13927529D01*
X13016842Y-13946576D01*
X13026366Y-13984671D01*
X13026366Y-14032291D01*
X13016842Y-14070386D01*
X13007319Y-14089433D01*
X12997795Y-14098957D01*
X12978747Y-14108481D01*
X12959700Y-14108481D01*
X12940652Y-14098957D01*
X12931128Y-14089433D01*
X12921604Y-14070386D01*
X12912081Y-14032291D01*
X12912081Y-13984671D01*
X12921604Y-13946576D01*
X12931128Y-13927529D01*
X12940652Y-13918005D01*
X12959700Y-13908481D01*
X13121604Y-14108481D02*
X13159700Y-14108481D01*
X13178747Y-14098957D01*
X13188271Y-14089433D01*
X13207319Y-14060862D01*
X13216842Y-14022767D01*
X13216842Y-13946576D01*
X13207319Y-13927529D01*
X13197795Y-13918005D01*
X13178747Y-13908481D01*
X13140652Y-13908481D01*
X13121604Y-13918005D01*
X13112081Y-13927529D01*
X13102557Y-13946576D01*
X13102557Y-13994195D01*
X13112081Y-14013243D01*
X13121604Y-14022767D01*
X13140652Y-14032291D01*
X13178747Y-14032291D01*
X13197795Y-14022767D01*
X13207319Y-14013243D01*
X13216842Y-13994195D01*
X13331128Y-13994195D02*
X13312081Y-13984671D01*
X13302557Y-13975148D01*
X13293033Y-13956100D01*
X13293033Y-13946576D01*
X13302557Y-13927529D01*
X13312081Y-13918005D01*
X13331128Y-13908481D01*
X13369223Y-13908481D01*
X13388271Y-13918005D01*
X13397795Y-13927529D01*
X13407319Y-13946576D01*
X13407319Y-13956100D01*
X13397795Y-13975148D01*
X13388271Y-13984671D01*
X13369223Y-13994195D01*
X13331128Y-13994195D01*
X13312081Y-14003719D01*
X13302557Y-14013243D01*
X13293033Y-14032291D01*
X13293033Y-14070386D01*
X13302557Y-14089433D01*
X13312081Y-14098957D01*
X13331128Y-14108481D01*
X13369223Y-14108481D01*
X13388271Y-14098957D01*
X13397795Y-14089433D01*
X13407319Y-14070386D01*
X13407319Y-14032291D01*
X13397795Y-14013243D01*
X13388271Y-14003719D01*
X13369223Y-13994195D01*
X13578747Y-13975148D02*
X13578747Y-14108481D01*
X13531128Y-13898957D02*
X13483509Y-14041814D01*
X13607319Y-14041814D01*
X13673985Y-13908481D02*
X13673985Y-13946576D01*
X13750176Y-13908481D02*
X13750176Y-13946576D01*
X14045414Y-14184671D02*
X14035890Y-14175148D01*
X14016842Y-14146576D01*
X14007319Y-14127529D01*
X13997795Y-14098957D01*
X13988271Y-14051338D01*
X13988271Y-14013243D01*
X13997795Y-13965624D01*
X14007319Y-13937052D01*
X14016842Y-13918005D01*
X14035890Y-13889433D01*
X14045414Y-13879910D01*
X14207319Y-13975148D02*
X14207319Y-14108481D01*
X14159700Y-13898957D02*
X14112081Y-14041814D01*
X14235890Y-14041814D01*
X14464461Y-14108481D02*
X14464461Y-13908481D01*
X14550176Y-14108481D02*
X14550176Y-14003719D01*
X14540652Y-13984671D01*
X14521604Y-13975148D01*
X14493033Y-13975148D01*
X14473985Y-13984671D01*
X14464461Y-13994195D01*
X14673985Y-14108481D02*
X14654938Y-14098957D01*
X14645414Y-14089433D01*
X14635890Y-14070386D01*
X14635890Y-14013243D01*
X14645414Y-13994195D01*
X14654938Y-13984671D01*
X14673985Y-13975148D01*
X14702557Y-13975148D01*
X14721604Y-13984671D01*
X14731128Y-13994195D01*
X14740652Y-14013243D01*
X14740652Y-14070386D01*
X14731128Y-14089433D01*
X14721604Y-14098957D01*
X14702557Y-14108481D01*
X14673985Y-14108481D01*
X14854938Y-14108481D02*
X14835890Y-14098957D01*
X14826366Y-14079910D01*
X14826366Y-13908481D01*
X15007319Y-14098957D02*
X14988271Y-14108481D01*
X14950176Y-14108481D01*
X14931128Y-14098957D01*
X14921604Y-14079910D01*
X14921604Y-14003719D01*
X14931128Y-13984671D01*
X14950176Y-13975148D01*
X14988271Y-13975148D01*
X15007319Y-13984671D01*
X15016842Y-14003719D01*
X15016842Y-14022767D01*
X14921604Y-14041814D01*
X15093033Y-14098957D02*
X15112081Y-14108481D01*
X15150176Y-14108481D01*
X15169223Y-14098957D01*
X15178747Y-14079910D01*
X15178747Y-14070386D01*
X15169223Y-14051338D01*
X15150176Y-14041814D01*
X15121604Y-14041814D01*
X15102557Y-14032291D01*
X15093033Y-14013243D01*
X15093033Y-14003719D01*
X15102557Y-13984671D01*
X15121604Y-13975148D01*
X15150176Y-13975148D01*
X15169223Y-13984671D01*
X15245414Y-14184671D02*
X15254938Y-14175148D01*
X15273985Y-14146576D01*
X15283509Y-14127529D01*
X15293033Y-14098957D01*
X15302557Y-14051338D01*
X15302557Y-14013243D01*
X15293033Y-13965624D01*
X15283509Y-13937052D01*
X15273985Y-13918005D01*
X15254938Y-13889433D01*
X15245414Y-13879910D01*
M02*
