%TF.GenerationSoftware,KiCad,Pcbnew,(6.0.11-0)*%
%TF.CreationDate,2023-04-07T11:55:59-07:00*%
%TF.ProjectId,SADA_Board,53414441-5f42-46f6-9172-642e6b696361,rev?*%
%TF.SameCoordinates,Original*%
%TF.FileFunction,Drillmap*%
%TF.FilePolarity,Positive*%
%FSLAX45Y45*%
G04 Gerber Fmt 4.5, Leading zero omitted, Abs format (unit mm)*
G04 Created by KiCad (PCBNEW (6.0.11-0)) date 2023-04-07 11:55:59*
%MOMM*%
%LPD*%
G01*
G04 APERTURE LIST*
%ADD10C,0.100000*%
%ADD11C,0.200000*%
G04 APERTURE END LIST*
D10*
X10478509Y-12217000D02*
X10478509Y-6916714D01*
X10578514Y-6816709D02*
G75*
G03*
X10478509Y-6916714I-4J-100001D01*
G01*
X18778091Y-6916714D02*
X18778091Y-12217000D01*
X18678086Y-12317001D02*
G75*
G03*
X18778091Y-12217000I4J100001D01*
G01*
X10478505Y-12217000D02*
G75*
G03*
X10578514Y-12317005I100005J0D01*
G01*
X18778091Y-6916714D02*
G75*
G03*
X18678086Y-6816709I-100001J4D01*
G01*
X18678086Y-12317005D02*
X10578514Y-12317005D01*
X10578514Y-6816709D02*
X18678086Y-6816709D01*
D11*
X10731128Y-12632481D02*
X10731128Y-12432481D01*
X10778747Y-12432481D01*
X10807319Y-12442005D01*
X10826366Y-12461052D01*
X10835890Y-12480100D01*
X10845414Y-12518195D01*
X10845414Y-12546767D01*
X10835890Y-12584862D01*
X10826366Y-12603910D01*
X10807319Y-12622957D01*
X10778747Y-12632481D01*
X10731128Y-12632481D01*
X10931128Y-12632481D02*
X10931128Y-12499148D01*
X10931128Y-12537243D02*
X10940652Y-12518195D01*
X10950176Y-12508671D01*
X10969223Y-12499148D01*
X10988271Y-12499148D01*
X11054938Y-12632481D02*
X11054938Y-12499148D01*
X11054938Y-12432481D02*
X11045414Y-12442005D01*
X11054938Y-12451529D01*
X11064462Y-12442005D01*
X11054938Y-12432481D01*
X11054938Y-12451529D01*
X11178747Y-12632481D02*
X11159700Y-12622957D01*
X11150176Y-12603910D01*
X11150176Y-12432481D01*
X11283509Y-12632481D02*
X11264461Y-12622957D01*
X11254938Y-12603910D01*
X11254938Y-12432481D01*
X11512081Y-12632481D02*
X11512081Y-12432481D01*
X11578747Y-12575338D01*
X11645414Y-12432481D01*
X11645414Y-12632481D01*
X11826366Y-12632481D02*
X11826366Y-12527719D01*
X11816842Y-12508671D01*
X11797795Y-12499148D01*
X11759700Y-12499148D01*
X11740652Y-12508671D01*
X11826366Y-12622957D02*
X11807319Y-12632481D01*
X11759700Y-12632481D01*
X11740652Y-12622957D01*
X11731128Y-12603910D01*
X11731128Y-12584862D01*
X11740652Y-12565814D01*
X11759700Y-12556291D01*
X11807319Y-12556291D01*
X11826366Y-12546767D01*
X11921604Y-12499148D02*
X11921604Y-12699148D01*
X11921604Y-12508671D02*
X11940652Y-12499148D01*
X11978747Y-12499148D01*
X11997795Y-12508671D01*
X12007319Y-12518195D01*
X12016842Y-12537243D01*
X12016842Y-12594386D01*
X12007319Y-12613433D01*
X11997795Y-12622957D01*
X11978747Y-12632481D01*
X11940652Y-12632481D01*
X11921604Y-12622957D01*
X12102557Y-12613433D02*
X12112081Y-12622957D01*
X12102557Y-12632481D01*
X12093033Y-12622957D01*
X12102557Y-12613433D01*
X12102557Y-12632481D01*
X12102557Y-12508671D02*
X12112081Y-12518195D01*
X12102557Y-12527719D01*
X12093033Y-12518195D01*
X12102557Y-12508671D01*
X12102557Y-12527719D01*
M02*
