%TF.GenerationSoftware,KiCad,Pcbnew,(6.0.11-0)*%
%TF.CreationDate,2023-04-07T11:55:34-07:00*%
%TF.ProjectId,SADA_Board,53414441-5f42-46f6-9172-642e6b696361,rev?*%
%TF.SameCoordinates,Original*%
%TF.FileFunction,Soldermask,Bot*%
%TF.FilePolarity,Negative*%
%FSLAX46Y46*%
G04 Gerber Fmt 4.6, Leading zero omitted, Abs format (unit mm)*
G04 Created by KiCad (PCBNEW (6.0.11-0)) date 2023-04-07 11:55:34*
%MOMM*%
%LPD*%
G01*
G04 APERTURE LIST*
%ADD10R,1.350000X1.350000*%
%ADD11O,1.350000X1.350000*%
%ADD12R,1.650000X1.650000*%
%ADD13C,1.650000*%
%ADD14C,5.000000*%
%ADD15O,1.300000X3.150000*%
%ADD16R,2.000000X1.400000*%
G04 APERTURE END LIST*
D10*
%TO.C,JP1*%
X139378800Y-100039800D03*
D11*
X141378800Y-100039800D03*
X143378800Y-100039800D03*
%TD*%
D10*
%TO.C,J1*%
X130031600Y-118607200D03*
D11*
X130031600Y-120607200D03*
X128031600Y-118607200D03*
X128031600Y-120607200D03*
X126031600Y-118607200D03*
X126031600Y-120607200D03*
X124031600Y-118607200D03*
X124031600Y-120607200D03*
X122031600Y-118607200D03*
X122031600Y-120607200D03*
X120031600Y-118607200D03*
X120031600Y-120607200D03*
X118031600Y-118607200D03*
X118031600Y-120607200D03*
X116031600Y-118607200D03*
X116031600Y-120607200D03*
%TD*%
%TO.C,J14*%
X168849400Y-89067000D03*
D10*
X170849400Y-89067000D03*
%TD*%
D12*
%TO.C,J5*%
X184311400Y-94756600D03*
D13*
X184311400Y-97296600D03*
X184311400Y-99836600D03*
X184311400Y-102376600D03*
%TD*%
D12*
%TO.C,J2*%
X175642000Y-111900000D03*
D13*
X175642000Y-114440000D03*
X175642000Y-116980000D03*
X175642000Y-119520000D03*
%TD*%
D14*
%TO.C,H1*%
X108784000Y-72170000D03*
%TD*%
%TO.C,H3*%
X183726000Y-119170000D03*
%TD*%
%TO.C,H2*%
X108720000Y-119156600D03*
%TD*%
D10*
%TO.C,J15*%
X168842800Y-92470600D03*
D11*
X170842800Y-92470600D03*
%TD*%
D12*
%TO.C,J3*%
X169302000Y-105370000D03*
D13*
X171842000Y-105370000D03*
X174382000Y-105370000D03*
X176922000Y-105370000D03*
%TD*%
D14*
%TO.C,H4*%
X183784000Y-72170000D03*
%TD*%
D15*
%TO.C,J8*%
X152515400Y-70458200D03*
D16*
X158665400Y-73008200D03*
D15*
X157965400Y-70458200D03*
D16*
X151815400Y-73008200D03*
%TD*%
M02*
