%TF.GenerationSoftware,KiCad,Pcbnew,(6.0.11-0)*%
%TF.CreationDate,2023-04-07T11:55:25-07:00*%
%TF.ProjectId,SADA_Board,53414441-5f42-46f6-9172-642e6b696361,rev?*%
%TF.SameCoordinates,Original*%
%TF.FileFunction,Paste,Top*%
%TF.FilePolarity,Positive*%
%FSLAX46Y46*%
G04 Gerber Fmt 4.6, Leading zero omitted, Abs format (unit mm)*
G04 Created by KiCad (PCBNEW (6.0.11-0)) date 2023-04-07 11:55:25*
%MOMM*%
%LPD*%
G01*
G04 APERTURE LIST*
G04 Aperture macros list*
%AMRoundRect*
0 Rectangle with rounded corners*
0 $1 Rounding radius*
0 $2 $3 $4 $5 $6 $7 $8 $9 X,Y pos of 4 corners*
0 Add a 4 corners polygon primitive as box body*
4,1,4,$2,$3,$4,$5,$6,$7,$8,$9,$2,$3,0*
0 Add four circle primitives for the rounded corners*
1,1,$1+$1,$2,$3*
1,1,$1+$1,$4,$5*
1,1,$1+$1,$6,$7*
1,1,$1+$1,$8,$9*
0 Add four rect primitives between the rounded corners*
20,1,$1+$1,$2,$3,$4,$5,0*
20,1,$1+$1,$4,$5,$6,$7,0*
20,1,$1+$1,$6,$7,$8,$9,0*
20,1,$1+$1,$8,$9,$2,$3,0*%
G04 Aperture macros list end*
%ADD10RoundRect,0.135000X-0.185000X0.135000X-0.185000X-0.135000X0.185000X-0.135000X0.185000X0.135000X0*%
%ADD11RoundRect,0.147500X0.147500X0.172500X-0.147500X0.172500X-0.147500X-0.172500X0.147500X-0.172500X0*%
%ADD12RoundRect,0.140000X0.170000X-0.140000X0.170000X0.140000X-0.170000X0.140000X-0.170000X-0.140000X0*%
%ADD13RoundRect,0.147500X0.172500X-0.147500X0.172500X0.147500X-0.172500X0.147500X-0.172500X-0.147500X0*%
%ADD14RoundRect,0.225000X0.250000X-0.225000X0.250000X0.225000X-0.250000X0.225000X-0.250000X-0.225000X0*%
%ADD15R,1.300000X0.600000*%
%ADD16RoundRect,0.200000X0.200000X0.275000X-0.200000X0.275000X-0.200000X-0.275000X0.200000X-0.275000X0*%
%ADD17R,0.914400X3.302000*%
%ADD18RoundRect,0.135000X-0.135000X-0.185000X0.135000X-0.185000X0.135000X0.185000X-0.135000X0.185000X0*%
%ADD19RoundRect,0.250000X0.325000X1.100000X-0.325000X1.100000X-0.325000X-1.100000X0.325000X-1.100000X0*%
%ADD20R,7.000000X1.240000*%
%ADD21R,8.000000X1.100000*%
%ADD22RoundRect,0.250000X0.312500X0.625000X-0.312500X0.625000X-0.312500X-0.625000X0.312500X-0.625000X0*%
%ADD23R,0.850000X2.350000*%
%ADD24RoundRect,0.225000X-0.225000X-0.250000X0.225000X-0.250000X0.225000X0.250000X-0.225000X0.250000X0*%
%ADD25RoundRect,0.237500X0.237500X-0.250000X0.237500X0.250000X-0.237500X0.250000X-0.237500X-0.250000X0*%
%ADD26RoundRect,0.147500X-0.172500X0.147500X-0.172500X-0.147500X0.172500X-0.147500X0.172500X0.147500X0*%
%ADD27RoundRect,0.140000X-0.140000X-0.170000X0.140000X-0.170000X0.140000X0.170000X-0.140000X0.170000X0*%
%ADD28RoundRect,0.200000X-0.200000X-0.275000X0.200000X-0.275000X0.200000X0.275000X-0.200000X0.275000X0*%
%ADD29RoundRect,0.135000X0.135000X0.185000X-0.135000X0.185000X-0.135000X-0.185000X0.135000X-0.185000X0*%
%ADD30R,0.600000X1.300000*%
%ADD31R,0.850000X0.250000*%
%ADD32R,0.250000X0.850000*%
%ADD33R,1.700000X2.700000*%
%ADD34RoundRect,0.150000X-0.512500X-0.150000X0.512500X-0.150000X0.512500X0.150000X-0.512500X0.150000X0*%
%ADD35RoundRect,0.150000X-0.150000X0.512500X-0.150000X-0.512500X0.150000X-0.512500X0.150000X0.512500X0*%
%ADD36RoundRect,0.237500X0.250000X0.237500X-0.250000X0.237500X-0.250000X-0.237500X0.250000X-0.237500X0*%
%ADD37RoundRect,0.250000X0.625000X-0.312500X0.625000X0.312500X-0.625000X0.312500X-0.625000X-0.312500X0*%
%ADD38RoundRect,0.250000X-0.625000X0.312500X-0.625000X-0.312500X0.625000X-0.312500X0.625000X0.312500X0*%
%ADD39RoundRect,0.218750X0.218750X0.256250X-0.218750X0.256250X-0.218750X-0.256250X0.218750X-0.256250X0*%
%ADD40RoundRect,0.135000X0.185000X-0.135000X0.185000X0.135000X-0.185000X0.135000X-0.185000X-0.135000X0*%
%ADD41RoundRect,0.225000X-0.250000X0.225000X-0.250000X-0.225000X0.250000X-0.225000X0.250000X0.225000X0*%
%ADD42RoundRect,0.225000X0.225000X0.250000X-0.225000X0.250000X-0.225000X-0.250000X0.225000X-0.250000X0*%
%ADD43RoundRect,0.182500X0.182500X-0.182500X0.182500X0.182500X-0.182500X0.182500X-0.182500X-0.182500X0*%
%ADD44RoundRect,0.062500X0.062500X-0.325000X0.062500X0.325000X-0.062500X0.325000X-0.062500X-0.325000X0*%
%ADD45RoundRect,0.062500X0.325000X-0.062500X0.325000X0.062500X-0.325000X0.062500X-0.325000X-0.062500X0*%
%ADD46R,1.400000X1.000000*%
%ADD47R,0.600000X1.750000*%
%ADD48R,0.660400X0.304800*%
%ADD49R,0.990600X1.701800*%
%ADD50RoundRect,0.140000X-0.170000X0.140000X-0.170000X-0.140000X0.170000X-0.140000X0.170000X0.140000X0*%
%ADD51RoundRect,0.147500X-0.147500X-0.172500X0.147500X-0.172500X0.147500X0.172500X-0.147500X0.172500X0*%
%ADD52R,3.180000X1.270000*%
%ADD53RoundRect,0.250000X-0.325000X-1.100000X0.325000X-1.100000X0.325000X1.100000X-0.325000X1.100000X0*%
%ADD54RoundRect,0.075000X0.075000X-0.700000X0.075000X0.700000X-0.075000X0.700000X-0.075000X-0.700000X0*%
%ADD55RoundRect,0.075000X0.700000X-0.075000X0.700000X0.075000X-0.700000X0.075000X-0.700000X-0.075000X0*%
%ADD56R,1.200000X1.000000*%
%ADD57RoundRect,0.250000X1.100000X-0.325000X1.100000X0.325000X-1.100000X0.325000X-1.100000X-0.325000X0*%
%ADD58RoundRect,0.062500X-0.212500X0.062500X-0.212500X-0.062500X0.212500X-0.062500X0.212500X0.062500X0*%
%ADD59RoundRect,0.050000X0.050000X-0.450000X0.050000X0.450000X-0.050000X0.450000X-0.050000X-0.450000X0*%
%ADD60O,1.400000X0.349999*%
%ADD61R,0.600000X0.300000*%
%ADD62R,1.200000X1.700000*%
%ADD63RoundRect,0.182500X-0.182500X0.182500X-0.182500X-0.182500X0.182500X-0.182500X0.182500X0.182500X0*%
%ADD64RoundRect,0.062500X-0.062500X0.325000X-0.062500X-0.325000X0.062500X-0.325000X0.062500X0.325000X0*%
%ADD65RoundRect,0.062500X-0.325000X0.062500X-0.325000X-0.062500X0.325000X-0.062500X0.325000X0.062500X0*%
%ADD66R,0.400000X1.750000*%
%ADD67R,1.825000X0.700000*%
%ADD68R,1.425000X2.500000*%
G04 APERTURE END LIST*
D10*
%TO.C,R1*%
X168411000Y-94881600D03*
X168411000Y-95901600D03*
%TD*%
D11*
%TO.C,D1*%
X152174000Y-86032000D03*
X151204000Y-86032000D03*
%TD*%
D12*
%TO.C,C6*%
X165617000Y-89293000D03*
X165617000Y-88333000D03*
%TD*%
D13*
%TO.C,D4*%
X127644000Y-70375000D03*
X127644000Y-69405000D03*
%TD*%
D14*
%TO.C,C13*%
X140915000Y-82095000D03*
X140915000Y-80545000D03*
%TD*%
D15*
%TO.C,Q1*%
X148134000Y-74080000D03*
X148134000Y-72180000D03*
X146034000Y-73130000D03*
%TD*%
D16*
%TO.C,C25*%
X119643000Y-92623000D03*
X117993000Y-92623000D03*
%TD*%
D17*
%TO.C,J6*%
X144652400Y-114652200D03*
X146152399Y-119910000D03*
X147652399Y-114652200D03*
X149152401Y-119910000D03*
X150652400Y-114652200D03*
X152152400Y-119910000D03*
X153652400Y-114652200D03*
X155152399Y-119910000D03*
X156652401Y-114652200D03*
X158152401Y-119910000D03*
X159652400Y-114652200D03*
X161152400Y-119910000D03*
X162652399Y-114652200D03*
X164152401Y-119910000D03*
X165652401Y-114652200D03*
X167152400Y-119910000D03*
%TD*%
D12*
%TO.C,C9*%
X159434000Y-103194000D03*
X159434000Y-102234000D03*
%TD*%
%TO.C,C2*%
X153780600Y-104380600D03*
X153780600Y-103420600D03*
%TD*%
D18*
%TO.C,R27*%
X122054000Y-96304000D03*
X123074000Y-96304000D03*
%TD*%
D10*
%TO.C,R4*%
X126374000Y-77762000D03*
X126374000Y-78782000D03*
%TD*%
D19*
%TO.C,C19*%
X175855000Y-78018000D03*
X172905000Y-78018000D03*
%TD*%
D20*
%TO.C,J11*%
X110288000Y-105450000D03*
X110288000Y-107950000D03*
D21*
X110288000Y-103645000D03*
X110288000Y-109755000D03*
%TD*%
D22*
%TO.C,R25*%
X121994500Y-86019000D03*
X119069500Y-86019000D03*
%TD*%
D23*
%TO.C,J4*%
X135836000Y-95703000D03*
X137836000Y-93353000D03*
X139836000Y-95703000D03*
X141836000Y-93353000D03*
X143836000Y-95703000D03*
%TD*%
D24*
%TO.C,C17*%
X135427420Y-87162000D03*
X136977420Y-87162000D03*
%TD*%
D18*
%TO.C,C10*%
X138005200Y-105881800D03*
X139025200Y-105881800D03*
%TD*%
D12*
%TO.C,C5*%
X166464000Y-95892000D03*
X166464000Y-94932000D03*
%TD*%
D13*
%TO.C,D11*%
X117865000Y-103268000D03*
X117865000Y-102298000D03*
%TD*%
D25*
%TO.C,R28*%
X126755000Y-103291000D03*
X126755000Y-101466000D03*
%TD*%
D26*
%TO.C,D15*%
X168538000Y-82740000D03*
X168538000Y-83710000D03*
%TD*%
%TO.C,D16*%
X167014000Y-82740000D03*
X167014000Y-83710000D03*
%TD*%
D27*
%TO.C,C33*%
X158542400Y-76074200D03*
X159502400Y-76074200D03*
%TD*%
D28*
%TO.C,R11*%
X144091000Y-81828000D03*
X145741000Y-81828000D03*
%TD*%
D27*
%TO.C,C26*%
X128688000Y-95760000D03*
X129648000Y-95760000D03*
%TD*%
D10*
%TO.C,R5*%
X130984000Y-77760000D03*
X130984000Y-78780000D03*
%TD*%
D15*
%TO.C,Q2*%
X138624000Y-70680000D03*
X138624000Y-72580000D03*
X140724000Y-71630000D03*
%TD*%
D29*
%TO.C,R13*%
X168302000Y-72656000D03*
X167282000Y-72656000D03*
%TD*%
D30*
%TO.C,Q3*%
X117677000Y-111273000D03*
X119577000Y-111273000D03*
X118627000Y-109173000D03*
%TD*%
D14*
%TO.C,C15*%
X141284000Y-78035000D03*
X141284000Y-76485000D03*
%TD*%
D31*
%TO.C,IC1*%
X129602000Y-75204000D03*
X129602000Y-74704000D03*
X129602000Y-74204000D03*
X129602000Y-73704000D03*
X129602000Y-73204000D03*
X129602000Y-72704000D03*
D32*
X128902000Y-72004000D03*
X128402000Y-72004000D03*
X127902000Y-72004000D03*
X127402000Y-72004000D03*
D31*
X126702000Y-72704000D03*
X126702000Y-73204000D03*
X126702000Y-73704000D03*
X126702000Y-74204000D03*
X126702000Y-74704000D03*
X126702000Y-75204000D03*
D32*
X127402000Y-75904000D03*
X127902000Y-75904000D03*
X128402000Y-75904000D03*
X128902000Y-75904000D03*
D33*
X128152000Y-73954000D03*
%TD*%
D34*
%TO.C,U3*%
X141060700Y-103153800D03*
X141060700Y-104103800D03*
X141060700Y-105053800D03*
X143335700Y-105053800D03*
X143335700Y-103153800D03*
%TD*%
D27*
%TO.C,C3*%
X148754000Y-97322000D03*
X149714000Y-97322000D03*
%TD*%
D35*
%TO.C,U11*%
X156508600Y-75839100D03*
X155558600Y-75839100D03*
X154608600Y-75839100D03*
X154608600Y-78114100D03*
X155558600Y-78114100D03*
X156508600Y-78114100D03*
%TD*%
D29*
%TO.C,R31*%
X148023500Y-94052800D03*
X147003500Y-94052800D03*
%TD*%
D36*
%TO.C,R3*%
X139277200Y-107913800D03*
X137452200Y-107913800D03*
%TD*%
D37*
%TO.C,R16*%
X172364000Y-74118500D03*
X172364000Y-71193500D03*
%TD*%
D19*
%TO.C,C31*%
X129500000Y-110149000D03*
X126550000Y-110149000D03*
%TD*%
D38*
%TO.C,R17*%
X171078000Y-82905500D03*
X171078000Y-85830500D03*
%TD*%
D39*
%TO.C,D28*%
X120891500Y-81040000D03*
X119316500Y-81040000D03*
%TD*%
D11*
%TO.C,D17*%
X164943000Y-81574000D03*
X163973000Y-81574000D03*
%TD*%
D29*
%TO.C,C23*%
X164964000Y-75196000D03*
X163944000Y-75196000D03*
%TD*%
D18*
%TO.C,C27*%
X128658000Y-87024400D03*
X129678000Y-87024400D03*
%TD*%
D40*
%TO.C,R6*%
X124850000Y-77004000D03*
X124850000Y-75984000D03*
%TD*%
D10*
%TO.C,R9*%
X132978000Y-74206000D03*
X132978000Y-75226000D03*
%TD*%
D41*
%TO.C,C29*%
X122183000Y-101477000D03*
X122183000Y-103027000D03*
%TD*%
D18*
%TO.C,R26*%
X128658000Y-93583600D03*
X129678000Y-93583600D03*
%TD*%
D10*
%TO.C,R10*%
X124850000Y-70650000D03*
X124850000Y-71670000D03*
%TD*%
D14*
%TO.C,C18*%
X144217000Y-86908000D03*
X144217000Y-85358000D03*
%TD*%
D42*
%TO.C,C1*%
X150517000Y-99332000D03*
X148967000Y-99332000D03*
%TD*%
D43*
%TO.C,U6*%
X168342000Y-78322000D03*
X169242000Y-79222000D03*
X169242000Y-78322000D03*
X168342000Y-79222000D03*
D44*
X168042000Y-80259500D03*
X168542000Y-80259500D03*
X169042000Y-80259500D03*
X169542000Y-80259500D03*
D45*
X170279500Y-79522000D03*
X170279500Y-79022000D03*
X170279500Y-78522000D03*
X170279500Y-78022000D03*
D44*
X169542000Y-77284500D03*
X169042000Y-77284500D03*
X168542000Y-77284500D03*
X168042000Y-77284500D03*
D45*
X167304500Y-78022000D03*
X167304500Y-78522000D03*
X167304500Y-79022000D03*
X167304500Y-79522000D03*
%TD*%
D46*
%TO.C,S1*%
X176615200Y-99394400D03*
X176615200Y-92394400D03*
%TD*%
D12*
%TO.C,C8*%
X161198000Y-103194000D03*
X161198000Y-102234000D03*
%TD*%
D14*
%TO.C,C12*%
X149984000Y-78055000D03*
X149984000Y-76505000D03*
%TD*%
D27*
%TO.C,C7*%
X159930000Y-100370000D03*
X160890000Y-100370000D03*
%TD*%
D47*
%TO.C,L1*%
X122945000Y-109107000D03*
X122945000Y-112207000D03*
%TD*%
D48*
%TO.C,U5*%
X136521300Y-76352001D03*
X136521300Y-77002000D03*
X136521300Y-77651999D03*
X138578700Y-77651999D03*
X138578700Y-77002000D03*
X138578700Y-76352001D03*
D49*
X137550000Y-77002000D03*
%TD*%
D14*
%TO.C,C4*%
X164347000Y-100129000D03*
X164347000Y-98579000D03*
%TD*%
D11*
%TO.C,D9*%
X137336000Y-84368000D03*
X136366000Y-84368000D03*
%TD*%
D10*
%TO.C,R29*%
X119643000Y-104813000D03*
X119643000Y-105833000D03*
%TD*%
D26*
%TO.C,D26*%
X124800000Y-94005000D03*
X124800000Y-94975000D03*
%TD*%
D40*
%TO.C,R8*%
X124850000Y-74464000D03*
X124850000Y-73444000D03*
%TD*%
D50*
%TO.C,C35*%
X126120000Y-69410000D03*
X126120000Y-70370000D03*
%TD*%
D18*
%TO.C,C28*%
X128658000Y-91397200D03*
X129678000Y-91397200D03*
%TD*%
D51*
%TO.C,D25*%
X128660000Y-89210800D03*
X129630000Y-89210800D03*
%TD*%
D29*
%TO.C,R14*%
X162174000Y-80558000D03*
X161154000Y-80558000D03*
%TD*%
D10*
%TO.C,R30*%
X124977000Y-102525000D03*
X124977000Y-103545000D03*
%TD*%
D52*
%TO.C,J9*%
X184608000Y-86980000D03*
X180408000Y-84440000D03*
X184608000Y-81900000D03*
X180408000Y-79360000D03*
%TD*%
D20*
%TO.C,J7*%
X117992000Y-75458000D03*
X117992000Y-72958000D03*
D21*
X117992000Y-77263000D03*
X117992000Y-71153000D03*
%TD*%
D11*
%TO.C,D27*%
X122999000Y-93982000D03*
X122029000Y-93982000D03*
%TD*%
D29*
%TO.C,R18*%
X164964000Y-73164000D03*
X163944000Y-73164000D03*
%TD*%
D51*
%TO.C,D10*%
X125993000Y-112943000D03*
X126963000Y-112943000D03*
%TD*%
D26*
%TO.C,D21*%
X116341000Y-92138000D03*
X116341000Y-93108000D03*
%TD*%
D53*
%TO.C,C32*%
X126586000Y-106211000D03*
X129536000Y-106211000D03*
%TD*%
D10*
%TO.C,R7*%
X132978000Y-76746000D03*
X132978000Y-77766000D03*
%TD*%
D13*
%TO.C,D6*%
X170392200Y-95851200D03*
X170392200Y-94881200D03*
%TD*%
D54*
%TO.C,U1*%
X153796000Y-98229000D03*
X154296000Y-98229000D03*
X154796000Y-98229000D03*
X155296000Y-98229000D03*
X155796000Y-98229000D03*
X156296000Y-98229000D03*
X156796000Y-98229000D03*
X157296000Y-98229000D03*
X157796000Y-98229000D03*
X158296000Y-98229000D03*
X158796000Y-98229000D03*
X159296000Y-98229000D03*
X159796000Y-98229000D03*
X160296000Y-98229000D03*
X160796000Y-98229000D03*
X161296000Y-98229000D03*
D55*
X163221000Y-96304000D03*
X163221000Y-95804000D03*
X163221000Y-95304000D03*
X163221000Y-94804000D03*
X163221000Y-94304000D03*
X163221000Y-93804000D03*
X163221000Y-93304000D03*
X163221000Y-92804000D03*
X163221000Y-92304000D03*
X163221000Y-91804000D03*
X163221000Y-91304000D03*
X163221000Y-90804000D03*
X163221000Y-90304000D03*
X163221000Y-89804000D03*
X163221000Y-89304000D03*
X163221000Y-88804000D03*
D54*
X161296000Y-86879000D03*
X160796000Y-86879000D03*
X160296000Y-86879000D03*
X159796000Y-86879000D03*
X159296000Y-86879000D03*
X158796000Y-86879000D03*
X158296000Y-86879000D03*
X157796000Y-86879000D03*
X157296000Y-86879000D03*
X156796000Y-86879000D03*
X156296000Y-86879000D03*
X155796000Y-86879000D03*
X155296000Y-86879000D03*
X154796000Y-86879000D03*
X154296000Y-86879000D03*
X153796000Y-86879000D03*
D55*
X151871000Y-88804000D03*
X151871000Y-89304000D03*
X151871000Y-89804000D03*
X151871000Y-90304000D03*
X151871000Y-90804000D03*
X151871000Y-91304000D03*
X151871000Y-91804000D03*
X151871000Y-92304000D03*
X151871000Y-92804000D03*
X151871000Y-93304000D03*
X151871000Y-93804000D03*
X151871000Y-94304000D03*
X151871000Y-94804000D03*
X151871000Y-95304000D03*
X151871000Y-95804000D03*
X151871000Y-96304000D03*
%TD*%
D13*
%TO.C,D5*%
X135264000Y-70906000D03*
X135264000Y-69936000D03*
%TD*%
D56*
%TO.C,Y1*%
X155709500Y-103190000D03*
X157409500Y-103190000D03*
X157409500Y-101890000D03*
X155709500Y-101890000D03*
%TD*%
D28*
%TO.C,C20*%
X173682000Y-81320000D03*
X175332000Y-81320000D03*
%TD*%
D10*
%TO.C,R23*%
X131581000Y-90337000D03*
X131581000Y-91357000D03*
%TD*%
%TO.C,R20*%
X126882000Y-93980000D03*
X126882000Y-95000000D03*
%TD*%
D40*
%TO.C,R2*%
X168411000Y-98666200D03*
X168411000Y-97646200D03*
%TD*%
D14*
%TO.C,C30*%
X119897000Y-103020000D03*
X119897000Y-101470000D03*
%TD*%
D26*
%TO.C,D8*%
X143722200Y-107151800D03*
X143722200Y-108121800D03*
%TD*%
D11*
%TO.C,D20*%
X162165000Y-73926000D03*
X161195000Y-73926000D03*
%TD*%
D29*
%TO.C,R32*%
X117661500Y-81030000D03*
X116641500Y-81030000D03*
%TD*%
D57*
%TO.C,C34*%
X132724000Y-72332000D03*
X132724000Y-69382000D03*
%TD*%
D13*
%TO.C,D19*%
X167030000Y-75173000D03*
X167030000Y-74203000D03*
%TD*%
D29*
%TO.C,R15*%
X162174000Y-76494000D03*
X161154000Y-76494000D03*
%TD*%
D41*
%TO.C,C16*%
X136089000Y-80278000D03*
X136089000Y-81828000D03*
%TD*%
D51*
%TO.C,D14*%
X175292000Y-75097000D03*
X176262000Y-75097000D03*
%TD*%
D13*
%TO.C,D23*%
X126504000Y-86807500D03*
X126504000Y-85837500D03*
%TD*%
D58*
%TO.C,U8*%
X124057000Y-105097000D03*
D59*
X123277000Y-105097000D03*
X122477000Y-105097000D03*
D58*
X121697000Y-105097000D03*
X121697000Y-105597000D03*
X121697000Y-106097000D03*
D59*
X122877000Y-106097000D03*
D58*
X124057000Y-106097000D03*
X124057000Y-105597000D03*
%TD*%
D22*
%TO.C,R24*%
X120089500Y-96941000D03*
X117164500Y-96941000D03*
%TD*%
D60*
%TO.C,U2*%
X133164601Y-117017598D03*
X133164601Y-117667599D03*
X133164601Y-118317598D03*
X133164601Y-118967599D03*
X133164601Y-119617598D03*
X133164601Y-120267599D03*
X133164601Y-120917598D03*
X133164601Y-121567599D03*
X138764599Y-121567599D03*
X138764599Y-120917598D03*
X138764599Y-120267599D03*
X138764599Y-119617598D03*
X138764599Y-118967599D03*
X138764599Y-118317598D03*
X138764599Y-117667599D03*
X138764599Y-117017598D03*
%TD*%
D11*
%TO.C,D18*%
X164943000Y-77510000D03*
X163973000Y-77510000D03*
%TD*%
D18*
%TO.C,R21*%
X124850000Y-96560000D03*
X125870000Y-96560000D03*
%TD*%
D48*
%TO.C,U4*%
X145157300Y-76606001D03*
X145157300Y-77256000D03*
X145157300Y-77905999D03*
X147214700Y-77905999D03*
X147214700Y-77256000D03*
X147214700Y-76606001D03*
D49*
X146186000Y-77256000D03*
%TD*%
D26*
%TO.C,D2*%
X162972000Y-102209000D03*
X162972000Y-103179000D03*
%TD*%
D61*
%TO.C,IC2*%
X141444000Y-87050000D03*
X141444000Y-86400000D03*
X141444000Y-85750000D03*
X139244000Y-85750000D03*
X139244000Y-86400000D03*
X139244000Y-87050000D03*
D62*
X140344000Y-86400000D03*
%TD*%
D29*
%TO.C,C22*%
X164948000Y-79542000D03*
X163928000Y-79542000D03*
%TD*%
D53*
%TO.C,C24*%
X116975000Y-89448000D03*
X119925000Y-89448000D03*
%TD*%
D51*
%TO.C,D24*%
X128683000Y-84838000D03*
X129653000Y-84838000D03*
%TD*%
D40*
%TO.C,R22*%
X131454000Y-86872000D03*
X131454000Y-85852000D03*
%TD*%
D63*
%TO.C,U7*%
X123588000Y-90876000D03*
X123588000Y-89976000D03*
X124488000Y-89976000D03*
X124488000Y-90876000D03*
D64*
X124788000Y-88938500D03*
X124288000Y-88938500D03*
X123788000Y-88938500D03*
X123288000Y-88938500D03*
D65*
X122550500Y-89676000D03*
X122550500Y-90176000D03*
X122550500Y-90676000D03*
X122550500Y-91176000D03*
D64*
X123288000Y-91913500D03*
X123788000Y-91913500D03*
X124288000Y-91913500D03*
X124788000Y-91913500D03*
D65*
X125525500Y-91176000D03*
X125525500Y-90676000D03*
X125525500Y-90176000D03*
X125525500Y-89676000D03*
%TD*%
D50*
%TO.C,C11*%
X141436200Y-107151800D03*
X141436200Y-108111800D03*
%TD*%
D26*
%TO.C,D7*%
X166480600Y-97649800D03*
X166480600Y-98619800D03*
%TD*%
D50*
%TO.C,C21*%
X162188000Y-71188000D03*
X162188000Y-72148000D03*
%TD*%
D29*
%TO.C,R12*%
X164964000Y-71132000D03*
X163944000Y-71132000D03*
%TD*%
D10*
%TO.C,R19*%
X169316000Y-74180000D03*
X169316000Y-75200000D03*
%TD*%
D13*
%TO.C,D22*%
X124664000Y-86835000D03*
X124664000Y-85865000D03*
%TD*%
D50*
%TO.C,C14*%
X128660000Y-77762000D03*
X128660000Y-78722000D03*
%TD*%
D11*
%TO.C,D3*%
X147950500Y-95721800D03*
X146980500Y-95721800D03*
%TD*%
D66*
%TO.C,J8*%
X156540400Y-72803200D03*
X155890400Y-72803200D03*
X155240400Y-72803200D03*
X154590400Y-72803200D03*
X153940400Y-72803200D03*
D67*
X152250400Y-71688200D03*
D68*
X156240400Y-69728200D03*
D67*
X158230400Y-71688200D03*
D68*
X154240400Y-69728200D03*
%TD*%
D52*
%TO.C,J10*%
X108018000Y-86400000D03*
X112218000Y-88940000D03*
X108018000Y-91480000D03*
X112218000Y-94020000D03*
%TD*%
M02*
