M48
; DRILL file {KiCad (6.0.11-0)} date Friday, April 07, 2023 at 11:55:59 AM
; FORMAT={-:-/ absolute / metric / decimal}
; #@! TF.CreationDate,2023-04-07T11:55:59-07:00
; #@! TF.GenerationSoftware,Kicad,Pcbnew,(6.0.11-0)
; #@! TF.FileFunction,Plated,1,4,PTH
FMAT,2
METRIC
; #@! TA.AperFunction,Plated,PTH,ViaDrill
T1C0.400
; #@! TA.AperFunction,Plated,PTH,ComponentDrill
T2C0.700
; #@! TA.AperFunction,Plated,PTH,ComponentDrill
T3C0.800
; #@! TA.AperFunction,Plated,PTH,ComponentDrill
T4C1.100
; #@! TA.AperFunction,Plated,PTH,ComponentDrill
T5C2.500
%
G90
G05
T1
X105.673Y-109.768
X105.8Y-102.275
X105.8Y-105.45
X106.562Y-111.8
X106.943Y-101.513
X108.213Y-102.275
X108.594Y-111.8
X109.483Y-101.513
X110.169Y-113.07
X110.753Y-102.275
X110.88Y-91.607
X111.769Y-111.8
X112.15Y-101.513
X113.522Y-113.07
X115.071Y-111.8
X115.706Y-78.526
X115.833Y-81.066
X115.96Y-88.813
X115.96Y-90.21
X115.96Y-96.306
X115.96Y-97.703
X116.976Y-78.526
X117.103Y-93.766
X117.128Y-91.378
X117.357Y-113.07
X117.992Y-93.766
X117.992Y-104.18
X118.094Y-91.353
X118.144Y-115.508
X118.246Y-85.384
X118.246Y-86.781
X118.373Y-78.526
X118.373Y-111.19
X118.754Y-101.386
X118.779Y-88.559
X118.779Y-89.626
X118.779Y-90.616
X118.805Y-105.171
X118.83Y-103.164
X119.77Y-78.526
X120.108Y-113.16
X120.481Y-91.378
X120.786Y-106.339
X120.812Y-104.873
X121.167Y-78.526
X121.542Y-103.99
X122.031Y-94.706
X122.031Y-95.544
X122.172Y-100.53
X122.31Y-81.066
X123.199Y-93.004
X123.326Y-101.386
X123.707Y-90.083
X123.707Y-90.845
X124.037Y-94.985
X124.215Y-103.672
X124.215Y-104.434
X124.469Y-90.083
X124.469Y-90.845
X124.672Y-85.257
X125.104Y-78.526
X125.485Y-86.781
X125.866Y-76.11
X126.501Y-87.67
X126.526Y-85.232
X127.788Y-73.21
X127.788Y-74.78
X128.128Y-73.954
X128.406Y-105.196
X128.406Y-106.085
X128.406Y-107.101
X128.406Y-109.26
X128.406Y-110.022
X128.406Y-111.038
X128.488Y-73.22
X128.538Y-74.78
X128.66Y-100.878
X128.66Y-101.64
X129.168Y-69.89
X129.295Y-101.259
X129.676Y-68.874
X129.697Y-90.358
X130.184Y-69.89
X130.184Y-76.494
X130.286Y-84.851
X130.438Y-87.035
X130.438Y-89.194
X130.438Y-91.353
X130.438Y-93.639
X130.438Y-95.798
X130.692Y-80.812
X131.073Y-88.051
X131.149Y-92.09
X131.2Y-75.478
X131.454Y-85.003
X131.708Y-76.748
X131.742Y-120.943
X131.962Y-78.526
X133.486Y-78.526
X134.042Y-116.31
X134.248Y-71.541
X134.248Y-72.43
X134.248Y-73.446
X134.502Y-87.162
X134.652Y-99.69
X134.968Y-74.462
X134.968Y-75.43
X135.01Y-68.874
X135.137Y-81.828
X135.772Y-77.002
X135.842Y-115.91
X136.28Y-85.257
X136.818Y-74.57
X137.538Y-77.47
X137.55Y-70.779
X137.558Y-76.57
X137.842Y-114.01
X138.185Y-73.573
X139.042Y-116.41
X139.074Y-73.573
X139.658Y-104.104
X139.836Y-80.558
X140.217Y-78.145
X140.328Y-86.93
X140.342Y-106.61
X140.344Y-85.96
X140.725Y-75.351
X141.614Y-75.351
X142.127Y-108.112
X143.022Y-117.971
X143.041Y-108.122
X144.007Y-117.803
X144.154Y-87.924
X144.484Y-103.215
X144.535Y-84.241
X145.012Y-117.401
X146.198Y-76.81
X146.198Y-77.71
X146.567Y-81.828
X146.719Y-102.961
X146.999Y-96.281
X147.091Y-119.435
X148.091Y-99.354
X148.853Y-98.211
X149.869Y-93.106
X149.961Y-119.435
X149.996Y-79.034
X150.377Y-86.019
X150.397Y-98.282
X150.402Y-95.049
X150.453Y-97.347
X150.503Y-96.109
X151.044Y-102.231
X152.842Y-117.31
X152.917Y-86.019
X153.085Y-119.461
X153.281Y-93.173
X153.603Y-94.655
X154.136Y-105.145
X155.508Y-93.156
X155.559Y-74.589
X156.041Y-100.954
X156.108Y-119.486
X157.438Y-104.104
X157.648Y-95.627
X157.768Y-92.877
X158.29Y-96.393
X159.054Y-119.461
X159.237Y-91.302
X159.277Y-90.303
X159.327Y-93.298
X159.523Y-103.892
X159.572Y-80.533
X159.572Y-96.611
X159.663Y-84.618
X160.096Y-119.461
X160.232Y-75.656
X160.659Y-84.526
X160.71Y-101.278
X161.147Y-81.295
X161.172Y-103.926
X161.299Y-73.065
X161.442Y-114.91
X161.68Y-100.243
X162.188Y-72.938
X162.264Y-97.83
X162.95Y-103.926
X163.204Y-75.224
X163.204Y-77.51
X163.204Y-79.542
X163.204Y-81.574
X163.204Y-100.116
X163.331Y-73.192
X163.915Y-80.558
X164.728Y-102.377
X165.142Y-119.81
X165.388Y-96.534
X166.049Y-99.227
X166.141Y-119.435
X166.379Y-88.051
X166.379Y-89.194
X166.379Y-94.401
X166.506Y-72.684
X166.912Y-93.873
X166.963Y-99.76
X167.014Y-73.573
X167.014Y-84.495
X167.268Y-96.865
X168.284Y-78.272
X168.284Y-79.034
X168.36Y-96.839
X168.538Y-84.495
X169.173Y-78.272
X169.173Y-79.034
X169.3Y-73.573
X169.3Y-76.113
X169.3Y-95.823
X169.608Y-94.873
X170.443Y-87.035
X171.586Y-77.51
X171.713Y-70.144
X171.84Y-87.035
X172.856Y-80.304
X173.11Y-70.144
X174.634Y-76.24
X175.015Y-80.558
X176.615Y-91.429
X176.717Y-100.924
X176.793Y-75.732
X177.047Y-78.018
X179.492Y-95.84
X180.578Y-96.814
X181.365Y-81.955
T3
X116.032Y-118.607
X116.032Y-120.607
X118.032Y-118.607
X118.032Y-120.607
X120.032Y-118.607
X120.032Y-120.607
X122.032Y-118.607
X122.032Y-120.607
X124.032Y-118.607
X124.032Y-120.607
X126.032Y-118.607
X126.032Y-120.607
X128.032Y-118.607
X128.032Y-120.607
X130.032Y-118.607
X130.032Y-120.607
X139.379Y-100.04
X141.379Y-100.04
X143.379Y-100.04
X168.843Y-92.471
X168.849Y-89.067
X170.843Y-92.471
X170.849Y-89.067
T4
X169.302Y-105.37
X171.842Y-105.37
X174.382Y-105.37
X175.642Y-111.9
X175.642Y-114.44
X175.642Y-116.98
X175.642Y-119.52
X176.922Y-105.37
X184.311Y-94.757
X184.311Y-97.297
X184.311Y-99.837
X184.311Y-102.377
T5
X108.72Y-119.157
X108.784Y-72.17
X183.726Y-119.17
X183.784Y-72.17
T2
X152.34Y-73.183G85X152.34Y-72.833
G05
X152.515Y-70.228G85X152.515Y-69.728
G05
X157.965Y-70.228G85X157.965Y-69.728
G05
X158.14Y-73.183G85X158.14Y-72.833
G05
T0
M30
